<?xml version="1.0" encoding="utf-8"?>
<!-- Generator: Adobe Illustrator 27.0.0, SVG Export Plug-In . SVG Version: 6.00 Build 0)  -->
<svg version="1.1" id="Layer_1" xmlns="http://www.w3.org/2000/svg" xmlns:xlink="http://www.w3.org/1999/xlink" x="0px" y="0px"
	 viewBox="0 0 200 125" style="enable-background:new 0 0 200 125;" xml:space="preserve">
<style type="text/css">
	.st0{clip-path:url(#SVGID_00000165198136353821824260000003236244731454193080_);}
	.st1{fill:#F00000;}
</style>
<g>
	<defs>
		<rect id="SVGID_1_" x="16.3" y="19.1" width="167.5" height="86.9"/>
	</defs>
	<clipPath id="SVGID_00000049938528819442653910000007353684926213897623_">
		<use xlink:href="#SVGID_1_"  style="overflow:visible;"/>
	</clipPath>
	<g style="clip-path:url(#SVGID_00000049938528819442653910000007353684926213897623_);">
		<path class="st1" d="M134.8,48.7c-3.6,0-7,1.9-9,4.9V40.1h-7.5V79h5.4l2.2-3.9c2,3,5.4,4.8,9,4.7c8.2,0,14.1-6.7,14.1-15.6
			C148.9,55.1,142.6,48.7,134.8,48.7z M133.6,72.8c-4.4,0-7.8-3.7-7.8-8.4c0-4.7,3.3-8.5,7.8-8.5c4.6,0,7.8,3.9,7.8,8.5
			C141.5,69,138.2,72.8,133.6,72.8z"/>
		<path class="st1" d="M169.4,48.7c-3.6,0-7,1.9-9,4.9l-2.3-4.1h-5.1v38.2h7.5V75.2c2,3,5.4,4.8,9,4.7c8.2,0,14.1-6.7,14.1-15.6
			C183.5,55.1,177.2,48.7,169.4,48.7z M168.2,72.8c-4.4,0-7.8-3.7-7.8-8.4c0-4.7,3.3-8.5,7.8-8.5c4.4,0,7.8,3.9,7.8,8.5
			C176,69,172.8,72.8,168.2,72.8z"/>
		<path class="st1" d="M105.5,53.4c-2-3-5.4-4.8-9-4.7c-8.2,0-14.1,6.7-14.1,15.6c0,9.1,6.3,15.5,14.1,15.5c3.6,0,7-1.9,9-4.9
			l2.3,4.1h5.3V49.5h-7.6V53.4z M97.7,72.8c-4.6,0-7.8-3.9-7.8-8.5c0-4.7,3.3-8.5,7.8-8.5c4.6,0,7.7,3.7,7.7,8.5
			S102.2,72.8,97.7,72.8z"/>
		<path class="st1" d="M43.7,40.2L16.3,87.7l27.4-15.9l27.4,15.9L43.7,40.2z"/>
	</g>
</g>
</svg>
