<svg width="239" height="124" viewBox="0 0 239 124" fill="none" xmlns="http://www.w3.org/2000/svg">
<g clip-path="url(#clip0_5_24)">
<path d="M169.167 42.3333C164 42.3333 159.167 45 156.333 49.3333V30H145.667V85.5H153.333L156.5 80C159.333 84.3333 164.167 86.8333 169.333 86.6667C181 86.6667 189.5 77.1667 189.5 64.3333C189.333 51.5 180.333 42.3333 169.167 42.3333ZM167.5 76.6667C161.167 76.6667 156.333 71.3333 156.333 64.6667C156.333 58 161 52.5 167.5 52.5C174 52.5 178.667 58 178.667 64.6667C178.667 71.3333 174 76.6667 167.5 76.6667Z" fill="#F00000"/>
<path d="M218.5 42.3333C213.333 42.3333 208.5 45 205.667 49.3333L202.333 43.5H195V98H205.667V80.1667C208.5 84.5 213.333 87 218.5 86.8333C230.167 86.8333 238.667 77.3333 238.667 64.5C238.667 51.5 229.667 42.3333 218.5 42.3333ZM216.833 76.6667C210.5 76.6667 205.667 71.3333 205.667 64.6667C205.667 58 210.333 52.5 216.833 52.5C223.167 52.5 228 58 228 64.6667C228 71.3333 223.333 76.6667 216.833 76.6667Z" fill="#F00000"/>
<path d="M127.333 49C124.5 44.6667 119.667 42.1667 114.5 42.3333C102.833 42.3333 94.3334 51.8333 94.3334 64.6667C94.3334 77.6667 103.333 86.8333 114.5 86.8333C119.667 86.8333 124.5 84.1667 127.333 79.8333L130.667 85.6667H138.167V43.5H127.333V49ZM116.167 76.6667C109.667 76.6667 105 71.1667 105 64.5C105 57.8333 109.667 52.3333 116.167 52.3333C122.667 52.3333 127.167 57.6667 127.167 64.5C127.167 71.3333 122.667 76.6667 116.167 76.6667Z" fill="#F00000"/>
<path d="M39.1667 30.1667L0 98L39.1667 75.3333L78.3333 98L39.1667 30.1667Z" fill="#F00000"/>
</g>
<defs>
<clipPath id="clip0_5_24">
<rect width="239" height="124" fill="white"/>
</clipPath>
</defs>
</svg>
