<svg xmlns="http://www.w3.org/2000/svg" xml:space="preserve" viewBox="0 0 512 512">
  <path fill="#e53950" d="M511.98 212.596c1.274-74.575-60.144-137.692-134.727-138.363-48.781-.439-91.697 24.806-116.044 63.031-2.431 3.816-7.987 3.816-10.417 0-24.347-38.225-67.263-63.471-116.044-63.031C60.164 74.905-1.254 138.021.02 212.596c.694 40.647 19.221 76.95 48.093 101.422h-.001l201.226 170.563a10.3 10.3 0 0 0 13.322 0l201.226-170.563h-.001c28.874-24.472 47.4-60.775 48.095-101.422z" data-original="#e53950"/>
  <path fill="#ca2e43" d="M414.342 79.87c34.648 25.389 57.208 66.623 56.43 112.123-.694 40.647-19.221 76.95-48.093 101.422h.001L252.011 438.077c-11.931 10.113-26.952 14.607-41.631 13.482l38.959 33.022a10.3 10.3 0 0 0 13.322 0l201.226-170.563h-.001c28.872-24.472 47.399-60.775 48.093-101.422 1.055-61.739-40.858-115.624-97.637-132.726z" data-original="#ca2e43"/>
  <path fill="#ffcebf" d="M367.331 276.048c-6.802 6.191-6.989 16.731-.559 23.161l-21.988-21.988c-6.092-6.092-16.016-6.652-22.387-.853-6.803 6.191-6.989 16.732-.56 23.161l-10.949-10.949c-6.092-6.092-16.016-6.652-22.387-.853-6.803 6.191-6.989 16.732-.56 23.161l11.268 11.268c-6.43-6.43-16.97-6.243-23.161.56-5.799 6.372-5.239 16.295.853 22.387l65.618 65.618h-11.393c-11.379 0-20.604 9.225-20.604 20.604v6.246a5.15 5.15 0 0 0 5.151 5.151h84.748a64.369 64.369 0 0 0 8.313-.46c1.547-.187 3.091.373 4.193 1.475l12.31 12.31 39.792-5.463 16.777-51.105-15.328-15.328c-.995-.995-1.503-2.361-1.467-3.768.436-16.927-5.806-33.994-18.724-46.912l-56.569-56.569c-6.091-6.093-16.015-6.653-22.387-.854z" data-original="#ffcebf"/>
  <path fill="#ffb09e" d="M355.071 367.411a7.5 7.5 0 0 0 0-10.606l-67.815-67.815c-5.551 6.281-5.326 15.877.676 21.889l56.532 56.532a7.5 7.5 0 0 0 10.607 0zm45.255-45.255a7.5 7.5 0 0 0 0-10.606l-34.239-34.239c-5.55 6.279-5.326 15.872.671 21.884l22.961 22.961a7.5 7.5 0 0 0 10.607 0zm-78.489-22.627c-6.011-6.011-6.239-15.614-.685-21.898l56.547 56.546a7.5 7.5 0 0 1 0 10.606 7.5 7.5 0 0 1-10.606 0z" data-original="#ffb09e"/>
  <path fill="#fff3de" d="M144.669 276.048c6.802 6.191 6.989 16.731.559 23.161l21.988-21.988c6.092-6.092 16.016-6.652 22.387-.853 6.803 6.191 6.989 16.732.56 23.161l10.949-10.949c6.092-6.092 16.016-6.652 22.387-.853 6.803 6.191 6.989 16.732.56 23.161l-11.268 11.268c6.43-6.43 16.97-6.243 23.161.56 5.799 6.372 5.239 16.295-.853 22.387l-65.618 65.618h11.393c11.379 0 20.604 9.225 20.604 20.604v6.246a5.15 5.15 0 0 1-5.151 5.151h-84.748a64.369 64.369 0 0 1-8.313-.46c-1.547-.187-3.091.373-4.193 1.475l-12.31 12.31-39.792-5.463-16.777-51.105 15.328-15.328c.995-.995 1.503-2.361 1.467-3.769-.436-16.927 5.806-33.994 18.724-46.912l56.569-56.569c6.091-6.092 16.015-6.652 22.387-.853z" data-original="#fff3de"/>
  <path fill="#ffdfcf" d="M156.929 367.411a7.5 7.5 0 0 1 0-10.606l67.815-67.815c5.551 6.281 5.326 15.877-.676 21.889l-56.532 56.532a7.5 7.5 0 0 1-10.607 0zm-45.255-45.255a7.5 7.5 0 0 1 0-10.606l34.239-34.239c5.55 6.279 5.326 15.872-.671 21.884l-22.961 22.961a7.5 7.5 0 0 1-10.607 0zm78.489-22.627c6.011-6.011 6.239-15.614.685-21.898l-56.547 56.546a7.5 7.5 0 0 0 0 10.606 7.5 7.5 0 0 0 10.606 0z" data-original="#ffdfcf"/>
  <path fill="#f1b0a2" d="M367.331 235.952c-6.802-6.191-6.989-16.731-.559-23.161l-21.988 21.988c-6.092 6.092-16.016 6.652-22.387.853-6.803-6.191-6.989-16.732-.56-23.161l-10.949 10.949c-6.092 6.092-16.016 6.652-22.387.853-6.803-6.191-6.989-16.732-.56-23.161l11.268-11.268c-6.43 6.43-16.97 6.243-23.161-.56-5.799-6.372-5.239-16.295.853-22.387l65.618-65.618h-11.393c-11.379 0-20.604-9.225-20.604-20.604v-6.246a5.15 5.15 0 0 1 5.151-5.151h84.748a64.369 64.369 0 0 1 8.313.46c1.547.187 3.091-.373 4.193-1.475l12.31-12.31 39.792 5.463 16.777 51.105-15.328 15.328c-.995.995-1.503 2.361-1.467 3.769.436 16.927-5.806 33.994-18.724 46.912l-56.569 56.569c-6.091 6.092-16.015 6.652-22.387.853z" data-original="#f1b0a2"/>
  <path fill="#eb9c8d" d="M344.784 234.779c-6.038 6.038-15.841 6.642-22.218 1.005l56.547-56.547a7.5 7.5 0 0 1 10.606 0 7.5 7.5 0 0 1 0 10.606zm22.308-67.563a7.5 7.5 0 0 0 0-10.606 7.5 7.5 0 0 0-10.606 0l-67.815 67.815c6.377 5.636 16.18 5.033 22.218-1.005zm-22.628-22.627a7.5 7.5 0 0 0 0-10.606 7.5 7.5 0 0 0-10.606 0l-56.547 56.547c6.284 5.554 15.887 5.325 21.898-.685z" data-original="#eb9c8d"/>
  <path fill="#ffeee6" d="M144.669 235.952c6.802-6.191 6.989-16.731.559-23.161l21.988 21.988c6.092 6.092 16.016 6.652 22.387.853 6.803-6.191 6.989-16.732.56-23.161l10.949 10.949c6.092 6.092 16.016 6.652 22.387.853 6.803-6.191 6.989-16.732.56-23.161l-11.268-11.268c6.43 6.43 16.97 6.243 23.161-.56 5.799-6.372 5.239-16.295-.853-22.387l-65.618-65.618h11.393c11.379 0 20.604-9.225 20.604-20.604V74.43a5.15 5.15 0 0 0-5.151-5.151h-84.748a64.369 64.369 0 0 0-8.313.46c-1.547.187-3.091-.373-4.193-1.475l-12.31-12.31-39.792 5.463-16.777 51.105 15.328 15.328c.995.995 1.503 2.361 1.467 3.769-.436 16.927 5.806 33.994 18.724 46.912l56.569 56.569c6.091 6.091 16.015 6.651 22.387.852z" data-original="#ffeee6"/>
  <path fill="#0055a3" d="m1.509 83.837 28.685 28.685 64.24-64.24a5.15 5.15 0 0 0 0-7.284L54.945 1.509A5.15 5.15 0 0 0 51.303 0H5.151A5.15 5.15 0 0 0 0 5.151v75.043c0 1.366.543 2.677 1.509 3.643z" data-original="#0055a3"/>
  <path fill="#c8effe" d="M506.849 0h-46.152a5.15 5.15 0 0 0-3.642 1.509l-39.488 39.488a5.15 5.15 0 0 0 0 7.284l64.24 64.24 28.685-28.685a5.15 5.15 0 0 0 1.509-3.642V5.151A5.152 5.152 0 0 0 506.849 0z" data-original="#c8effe"/>
  <path fill="#ffc344" d="M0 431.806v75.043A5.15 5.15 0 0 0 5.151 512h46.152a5.15 5.15 0 0 0 3.642-1.509l39.488-39.488a5.15 5.15 0 0 0 0-7.284l-64.24-64.24-28.684 28.684A5.153 5.153 0 0 0 0 431.806z" data-original="#ffc344"/>
  <path fill="#d5efc8" d="m481.806 399.478-64.24 64.24a5.15 5.15 0 0 0 0 7.284l39.488 39.488a5.15 5.15 0 0 0 3.642 1.509h46.152a5.15 5.15 0 0 0 5.151-5.151v-75.043a5.15 5.15 0 0 0-1.509-3.642z" data-original="#d5efc8"/>
  <path fill="#004281" d="M32 72.96a7.474 7.474 0 0 1-5.303-2.197 7.5 7.5 0 0 1 0-10.606l20.821-20.821a7.5 7.5 0 0 1 10.606 0 7.5 7.5 0 0 1 0 10.606L37.303 70.764A7.477 7.477 0 0 1 32 72.96z" data-original="#004281"/>
  <path fill="#99e6fc" d="M480 72.96a7.474 7.474 0 0 1-5.303-2.197l-20.821-20.821a7.5 7.5 0 0 1 0-10.606 7.5 7.5 0 0 1 10.606 0l20.821 20.821a7.5 7.5 0 0 1 0 10.606A7.474 7.474 0 0 1 480 72.96z" data-original="#99e6fc"/>
  <path fill="#feb237" d="M52.821 474.861a7.474 7.474 0 0 1-5.303-2.197l-20.821-20.821a7.5 7.5 0 0 1 0-10.606 7.5 7.5 0 0 1 10.606 0l20.821 20.821a7.5 7.5 0 0 1-5.303 12.803z" data-original="#feb237"/>
  <path fill="#c1e9af" d="M459.179 474.861a7.474 7.474 0 0 1-5.303-2.197 7.5 7.5 0 0 1 0-10.606l20.821-20.821a7.5 7.5 0 0 1 10.606 0 7.5 7.5 0 0 1 0 10.606l-20.821 20.821a7.476 7.476 0 0 1-5.303 2.197z" data-original="#c1e9af"/>
  <path fill="#ffdfcf" d="M122.281 189.844a7.5 7.5 0 0 1 0-10.606 7.5 7.5 0 0 1 10.606 0l56.547 56.547c-6.377 5.637-16.18 5.033-22.218-1.005zm78.831 33.576c6.038 6.038 15.841 6.642 22.218 1.005l-67.815-67.815a7.5 7.5 0 0 0-10.606 0 7.5 7.5 0 0 0 0 10.606zm11.679-33.576c6.011 6.011 15.614 6.239 21.898.685l-56.547-56.547a7.5 7.5 0 0 0-10.606 0 7.5 7.5 0 0 0 0 10.606z" data-original="#ffdfcf"/>
</svg>
