<svg xmlns="http://www.w3.org/2000/svg" xml:space="preserve" class="hovered-paths" viewBox="0 0 74 74">
  <path fill="#565455" d="M25.77 22.48C22.98 18.55 26.41 5 15.39 5S7.79 18.55 5 22.48c6.92 4.44 13.85 4.44 20.77 0z" data-original="#565455"/>
  <path fill="#fc9" d="m5.87 34.76.62 8.9h1.86l.61-8.9z" data-original="#ffcc99"/>
  <path fill="#fc9" d="M9.52 45.02a.33.33 0 0 1-.46-.08l-.43-.62v1.95c0 .18-.15.32-.32.32-.18 0-.33-.15-.33-.32v.23c0 .18-.15.33-.33.33s-.32-.15-.32-.33v-.23c0 .18-.15.32-.33.32s-.32-.15-.32-.32c0 .18-.15.32-.33.32s-.33-.15-.33-.32v-1.98c0-.62.51-1.13 1.13-1.13h.74c.47 0 .9.23 1.16.61l.55.8c.11.15.07.35-.08.45z" data-original="#ffcc99"/>
  <path fill="#db976a" d="M8.02 45.83c-.01.15 0 .29-.03.44-.03-.15-.02-.29-.04-.44.01-.15.01-.29.04-.44.02.15.02.3.03.44zm-.69-.44c.03.15.02.29.03.44-.01.15 0 .29-.03.44-.03-.15-.02-.29-.03-.44.01-.14.01-.29.03-.44zm-.65.15c.03.12.02.24.03.36-.01.12 0 .24-.03.36-.03-.12-.02-.24-.03-.36.01-.11 0-.23.03-.36z" data-original="#db976a"/>
  <path fill="#fc9" d="m24.9 34.76-.62 8.9h-1.86l-.62-8.9z" data-original="#ffcc99"/>
  <path fill="#fc9" d="M21.24 45.02a.33.33 0 0 0 .46-.08l.43-.62v1.95c0 .18.15.32.32.32.18 0 .33-.15.33-.32v.23c0 .18.15.33.33.33s.32-.15.32-.33v-.23c0 .18.15.32.33.32s.32-.15.32-.32c0 .18.15.32.33.32s.33-.15.33-.32v-1.98c0-.62-.51-1.13-1.13-1.13h-.74c-.47 0-.9.23-1.16.61l-.55.8c-.1.15-.06.35.08.45z" data-original="#ffcc99"/>
  <path fill="#db976a" d="M22.75 45.83c.01.15 0 .29.03.44.03-.15.02-.29.04-.44-.01-.15-.01-.29-.04-.44-.03.15-.02.3-.03.44zm.68-.44c-.03.15-.02.29-.03.44.01.15 0 .29.03.44.03-.15.02-.29.03-.44 0-.14 0-.29-.03-.44zm.66.15c-.03.12-.02.24-.03.36.01.12 0 .24.03.36.03-.12.02-.24.03-.36-.01-.11-.01-.23-.03-.36z" data-original="#db976a"/>
  <path fill="#ffd767" d="M25.41 31.7v3.26H5.36v-3.25c0-2.16 1.01-4.2 2.73-5.51h.01a6.96 6.96 0 0 1 4.21-1.42h6.17c1.52 0 3 .5 4.21 1.43a6.896 6.896 0 0 1 2.72 5.49z" class="hovered-path" data-original="#ffd767"/>
  <path fill="#f4bc89" d="M20.55 25.1c-.65 1.96-2.71 3.37-5.17 3.37-2.45 0-4.51-1.43-5.16-3.37.67-.22 1.38-.33 2.09-.33h6.17c.7 0 1.4.11 2.07.33z" data-original="#f4bc89"/>
  <path fill="#5ad1fe" d="M9.27 32.38H21.5v12.34H9.27z" data-original="#5ad1fe"/>
  <path fill="#fc9" d="m20.72 56.59-.23 10.46-2.58-.02-1.17-10.46z" data-original="#ffcc99"/>
  <path fill="#565455" d="M21.14 68.3v.17c0 .3-.24.54-.54.54h-2.75c-.3 0-.54-.24-.54-.54v-.17c0-1.05.85-1.91 1.91-1.91 1.07 0 1.92.85 1.92 1.91z" data-original="#565455"/>
  <path fill="#dfe7ef" d="M21.14 68.3v.17c0 .3-.24.54-.54.54h-2.75c-.3 0-.54-.24-.54-.54v-.17z" data-original="#dfe7ef"/>
  <path fill="#fc9" d="m10.05 56.59.23 10.46 2.58-.02 1.16-10.46z" data-original="#ffcc99"/>
  <path fill="#565455" d="M9.62 68.3v.17c0 .3.24.54.54.54h2.75c.3 0 .54-.24.54-.54v-.17c0-1.05-.85-1.91-1.91-1.91s-1.92.85-1.92 1.91z" data-original="#565455"/>
  <path fill="#dfe7ef" d="M9.62 68.3v.17c0 .3.24.54.54.54h2.75c.3 0 .54-.24.54-.54v-.17z" data-original="#dfe7ef"/>
  <path fill="#565455" d="m14.58 56.83.8-4.23.8 4.23h5.41V46.34H9.18v10.49z" data-original="#565455"/>
  <path fill="#f36" d="M9.18 32.34h12.4v13.99H9.18z" data-original="#ff3366"/>
  <path fill="#ffd767" d="M9.18 45.05h12.4v1.28H9.18z" class="hovered-path" data-original="#ffd767"/>
  <path fill="#fff" d="M16.86 46.73h-2.95v-2.08h2.95zm-2.47-.48h1.98v-1.11h-1.98z" data-original="#ffffff"/>
  <path fill="#fff" d="M13.58 45.45h1.81v.48h-1.81z" data-original="#ffffff"/>
  <path fill="#f36" d="M10.84 36.21H9.18V24.97l1.66-.25zm10.75 0h-1.66V24.72l1.66.25z" data-original="#ff3366"/>
  <path fill="#f4bc89" d="M17.85 20.73v4.37c-1.64.95-3.28.95-4.92 0v-4.37zm5.38-3.08c0 1-.69 1.81-1.55 1.81s-1.55-.81-1.55-1.81.69-1.81 1.55-1.81 1.55.8 1.55 1.81zm-12.59 0c0 1-.69 1.81-1.55 1.81-.85 0-1.55-.81-1.55-1.81s.69-1.81 1.55-1.81c.86-.01 1.55.8 1.55 1.81z" data-original="#f4bc89"/>
  <path fill="#fc9" d="M21.68 11.11v7.06c-.68 3.45-2.48 5.71-6.29 5.8-3.81-.09-5.61-2.35-6.29-5.8v-7.06z" data-original="#ffcc99"/>
  <path fill="#565455" d="M18.91 17.04c0 .44-.34.8-.76.8s-.76-.36-.76-.8.34-.8.76-.8.76.36.76.8z" data-original="#565455"/>
  <path fill="#fff" d="M18.15 16.73c0 .12-.1.22-.22.22s-.22-.1-.22-.22.1-.22.22-.22c.12-.01.22.09.22.22z" data-original="#ffffff"/>
  <path fill="#f4bc89" d="M16.98 15.73c.1-.21.28-.38.48-.5.21-.12.45-.18.69-.19s.49.05.7.16.39.27.5.48c-.22-.08-.42-.14-.61-.18-.2-.04-.39-.06-.58-.05-.19 0-.38.03-.58.08-.19.04-.39.11-.6.2z" data-original="#f4bc89"/>
  <path fill="#565455" d="M11.87 17.04c0 .44.34.8.76.8s.76-.36.76-.8-.34-.8-.76-.8-.76.36-.76.8z" data-original="#565455"/>
  <path fill="#fff" d="M12.63 16.73c0 .12.1.22.22.22s.22-.1.22-.22-.1-.22-.22-.22c-.12-.01-.22.09-.22.22z" data-original="#ffffff"/>
  <path fill="#f4bc89" d="M13.79 15.73c-.22-.09-.41-.16-.6-.2-.19-.05-.39-.07-.58-.08-.19 0-.38.01-.58.05s-.39.1-.61.18c.11-.21.29-.37.5-.48s.45-.17.7-.16c.24 0 .48.07.69.19s.39.29.48.5zm.53 3.71c.19.07.37.13.55.18.17.05.35.07.52.07s.34-.03.52-.07c.18-.05.35-.11.55-.18-.11.17-.27.31-.45.42-.18.1-.4.16-.62.16s-.43-.06-.62-.17c-.18-.09-.33-.23-.45-.41zm-1.02 1.18c.35.11.7.22 1.05.29s.7.11 1.05.11.7-.04 1.05-.11.69-.18 1.05-.29c-.29.23-.62.41-.98.54-.36.12-.73.19-1.11.19s-.76-.07-1.11-.19c-.38-.13-.71-.31-1-.54zm2.7 1.52a.749.749 0 0 1-.62.35.749.749 0 0 1-.62-.35c.11.05.21.1.31.13s.2.05.31.05a1.366 1.366 0 0 0 .62-.18z" data-original="#f4bc89"/>
  <path fill="#565455" d="M8.82 13.49s1.38-.86 1.65-1.98c0 0 .17.94-.17 2.24 0 0 4.08.9 5.29-1.99 0 0 .23.81-.38 2.12 0 0 3.61.05 5.44-1.73 0 0 .07 1.38 1.26 2.27v-4.24H8.82z" data-original="#565455"/>
  <path fill="#5aed99" d="M47.69 10.5c.49.09.85.5.85.99v3.27c0 4.56-2.08 8.87-5.64 11.73l-4.89 3.9c-.37.29-.89.29-1.26 0l-4.89-3.9a15.023 15.023 0 0 1-5.64-11.73V11.5c0-.49.36-.9.85-.99 3.72-.68 6.93-2.39 9.59-5.19a.997.997 0 0 1 1.44 0c2.67 2.79 5.88 4.5 9.59 5.18z" data-original="#5aed99"/>
  <path fill="#dfe7ef" d="M33.11 24.93c-3.1-2.49-4.88-6.19-4.88-10.16v-2.46c3.5-.78 6.57-2.43 9.15-4.89 2.59 2.47 5.66 4.11 9.15 4.89v2.46c0 3.97-1.78 7.67-4.89 10.16l-4.27 3.41z" data-original="#dfe7ef"/>
  <path fill="#5aed99" d="M40.85 20.74c-.96.96-2.21 1.43-3.47 1.43s-2.51-.48-3.46-1.43c-1.91-1.91-1.91-5.02 0-6.94a4.907 4.907 0 0 1 6.93 0c1.91 1.92 1.91 5.03 0 6.94z" data-original="#5aed99"/>
  <path fill="#fff" d="M36.54 19.46c-.17 0-.33-.07-.45-.19l-1.4-1.4c-.25-.25-.25-.65 0-.9s.65-.25.9 0l.94.94 2.63-2.63c.25-.25.65-.25.9 0s.25.65 0 .9L37 19.27a.66.66 0 0 1-.46.19z" data-original="#ffffff"/>
  <path fill="#fc9" d="m63.32 56.59-.23 10.46-2.58-.02-1.16-10.46z" data-original="#ffcc99"/>
  <path fill="#565455" d="M63.75 68.3v.17c0 .3-.24.54-.54.54h-2.75c-.3 0-.54-.24-.54-.54v-.17c0-1.05.85-1.91 1.91-1.91 1.07 0 1.92.85 1.92 1.91z" data-original="#565455"/>
  <path fill="#dfe7ef" d="M63.75 68.3v.17c0 .3-.24.54-.54.54h-2.75c-.3 0-.54-.24-.54-.54v-.17z" data-original="#dfe7ef"/>
  <path fill="#fc9" d="m52.66 56.59.23 10.46 2.58-.02 1.16-10.46z" data-original="#ffcc99"/>
  <path fill="#565455" d="M52.23 68.3v.17c0 .3.24.54.54.54h2.75c.3 0 .54-.24.54-.54v-.17c0-1.05-.85-1.91-1.91-1.91-1.07 0-1.92.85-1.92 1.91z" data-original="#565455"/>
  <path fill="#dfe7ef" d="M52.23 68.3v.17c0 .3.24.54.54.54h2.75c.3 0 .54-.24.54-.54v-.17zM69 32.34v3.58H46.98v-3.57c0-2.38 1.11-4.62 3-6.06h.01a7.637 7.637 0 0 1 4.62-1.56h6.77c1.67 0 3.3.55 4.63 1.57A7.597 7.597 0 0 1 69 32.34z" data-original="#dfe7ef"/>
  <path fill="#cad4dd" d="M62.98 24.91c-3.32 2.32-6.64 2.32-9.97 0 .52-.13 1.05-.18 1.59-.18h6.78c.54-.01 1.07.05 1.6.18z" data-original="#cad4dd"/>
  <path fill="#565455" d="m57.19 56.83.8-4.23.8 4.23h5.4V46.34h-12.4v10.49z" data-original="#565455"/>
  <path fill="#f36" d="M51.79 32.34h12.4v13.99h-12.4z" data-original="#ff3366"/>
  <path fill="#ffd767" d="M51.79 45.05h12.4v1.28h-12.4z" class="hovered-path" data-original="#ffd767"/>
  <path fill="#fff" d="M59.46 46.73h-2.95v-2.08h2.95zM57 46.25h1.98v-1.11H57z" data-original="#ffffff"/>
  <path fill="#fff" d="M56.18 45.45h1.81v.48h-1.81z" data-original="#ffffff"/>
  <path fill="#f36" d="M53.45 36.21h-1.66V24.97l1.66-.25zm10.74 0h-1.66V24.72l1.66.25z" data-original="#ff3366"/>
  <path fill="#f4bc89" d="M60.81 20.36v4.38c-1.87.95-3.75.95-5.62 0v-4.38zm5.49-3.8c0 1.06-.73 1.92-1.64 1.92-.9 0-1.64-.86-1.64-1.92s.73-1.92 1.64-1.92 1.64.86 1.64 1.92zm-13.34 0c0 1.06-.73 1.92-1.64 1.92-.9 0-1.64-.86-1.64-1.92s.73-1.92 1.64-1.92 1.64.86 1.64 1.92z" data-original="#f4bc89"/>
  <path fill="#fc9" d="M64.66 9.64v7.48c-.72 3.66-2.63 6.04-6.67 6.14-4.04-.1-5.95-2.48-6.67-6.14V9.64z" data-original="#ffcc99"/>
  <path fill="#565455" d="M51.32 17.29s.49.17.36-2.29c-.04-.77.26-1.53.84-2.03.43-.37 1.07-.65 2-.6 2.48.12 4.72.08 6.63-.84 0 0 .32.95 2.04 1.84 1.2.62.72 3.65 1.44 3.92 1.99-4.83 2.68-9.54-1.18-10.03 0 0-2.59-3.57-8.94-1.65s-4.22 11.74-3.19 11.68z" data-original="#565455"/>
  <ellipse cx="60.92" cy="15.92" fill="#565455" data-original="#565455" rx=".8" ry=".85"/>
  <path fill="#fff" d="M60.92 15.59c0 .13-.11.24-.24.24s-.24-.11-.24-.24.11-.24.24-.24.24.11.24.24z" data-original="#ffffff"/>
  <path fill="#f4bc89" d="M59.68 14.53c.11-.22.29-.4.51-.53.22-.12.47-.2.73-.2.26-.01.51.05.74.17.22.12.42.29.53.51-.23-.08-.44-.15-.65-.19s-.41-.06-.61-.06-.41.03-.61.08c-.21.05-.41.13-.64.22z" data-original="#f4bc89"/>
  <ellipse cx="55.07" cy="15.92" fill="#565455" data-original="#565455" rx=".8" ry=".85"/>
  <path fill="#fff" d="M55.07 15.59c0 .13.11.24.24.24s.24-.11.24-.24-.11-.24-.24-.24c-.14 0-.24.11-.24.24z" data-original="#ffffff"/>
  <path fill="#f4bc89" d="M56.31 14.53c-.23-.09-.43-.16-.64-.21s-.41-.08-.61-.08-.41.02-.61.06c-.21.04-.42.11-.65.19.11-.22.31-.39.53-.51s.48-.18.74-.17.51.08.73.2c.21.12.4.3.51.52zm.56 3.94c.21.07.39.14.58.19s.37.08.55.08.36-.03.55-.08.37-.12.58-.19c-.12.18-.28.33-.47.44s-.42.17-.65.17-.46-.07-.65-.17c-.21-.11-.38-.26-.49-.44zm-1.09 1.59c.37.12.74.23 1.11.31a5.239 5.239 0 0 0 2.22 0c.37-.07.73-.19 1.11-.31-.31.25-.66.44-1.03.57-.38.13-.78.2-1.18.2s-.8-.07-1.18-.2c-.39-.13-.75-.32-1.05-.57zm2.87 1.27c-.06.11-.16.2-.27.27a.704.704 0 0 1-.76 0 .775.775 0 0 1-.27-.27c.11.06.22.11.33.14a.866.866 0 0 0 .64 0c.11-.04.21-.09.33-.14z" data-original="#f4bc89"/>
  <path fill="#fff" d="M53.25 33.88v5.96c0 .22-.18.41-.4.41-.23 0-.41-.19-.41-.41v-5.96c0-.22.18-.4.41-.4.22 0 .4.18.4.4zm0 7.86v1.47c0 .22-.18.41-.4.41-.23 0-.41-.19-.41-.41v-1.47c0-.22.18-.4.41-.4.22 0 .4.18.4.4z" opacity=".3"/>
  <path fill="#fc9" d="m68.25 35.92-.66 8.94H65.6l-.66-8.94z"/>
  <path fill="#fc9" d="M64.34 46.32a.36.36 0 0 0 .49-.09l.46-.67v2.09c0 .19.16.35.35.35.2 0 .35-.16.35-.35v.25c0 .2.16.35.35.35s.35-.16.35-.35v-.25c0 .19.16.35.35.35s.35-.16.35-.35c0 .19.16.35.35.35s.35-.16.35-.35v-2.12c0-.67-.54-1.21-1.21-1.21h-.79c-.5 0-.96.25-1.25.66l-.58.85c-.12.17-.07.39.08.49z"/>
  <path fill="#db976a" d="M65.95 47.19c.01.16 0 .31.03.47.03-.16.02-.31.04-.47-.01-.16-.01-.31-.04-.47-.02.15-.02.31-.03.47z"/>
  <ellipse cx="66.69" cy="47.19" fill="#db976a" rx=".03" ry=".47"/>
  <path fill="#db976a" d="M67.38 46.88c-.03.13-.02.26-.03.39.01.13 0 .26.03.39.03-.13.02-.26.03-.39 0-.13 0-.26-.03-.39z"/>
  <path fill="#fc9" d="m47.73 35.92.66 8.94h1.99l.66-8.94z"/>
  <path fill="#fc9" d="M51.64 46.32a.36.36 0 0 1-.49-.09l-.46-.67v2.09c0 .19-.16.35-.35.35-.2 0-.35-.16-.35-.35v.25c0 .2-.16.35-.35.35s-.35-.16-.35-.35v-.25c0 .19-.16.35-.35.35s-.35-.16-.35-.35c0 .19-.16.35-.35.35s-.35-.16-.35-.35v-2.12c0-.67.54-1.21 1.21-1.21h.79c.5 0 .96.25 1.25.66l.58.85c.12.17.07.39-.08.49z"/>
  <path fill="#db976a" d="M50.03 47.19c-.01.16 0 .31-.03.47-.03-.16-.02-.31-.04-.47.01-.16.01-.31.04-.47.02.15.02.31.03.47z"/>
  <ellipse cx="49.29" cy="47.19" fill="#db976a" rx=".03" ry=".47"/>
  <path fill="#db976a" d="M48.6 46.88c.03.13.02.26.03.39-.01.13 0 .26-.03.39-.03-.13-.02-.26-.03-.39 0-.13 0-.26.03-.39z"/>
</svg>
