<svg xmlns="http://www.w3.org/2000/svg" xml:space="preserve" viewBox="0 0 512 512">
  <g fill-rule="evenodd" clip-rule="evenodd">
    <path fill="#fe646f" d="M56.228 293.558h43.852c3.305 0 6 2.695 6 5.999v95.149c0 3.304-2.695 6-6 6H56.228c-3.305 0-6-2.695-6-6v-95.149c0-3.304 2.695-5.999 6-5.999z" data-original="#fe646f"/>
    <path fill="#fd4755" d="M90.079 293.558h10c3.305 0 6 2.695 6 5.999v95.149c0 3.304-2.695 6-6 6h-10c3.305 0 6-2.695 6-6v-95.149c0-3.304-2.695-5.999-6-5.999z" data-original="#fd4755"/>
    <path fill="#ffe177" d="M203.788 237.419h-43.853c-3.305 0-6 2.696-6 6v151.288c0 3.305 2.695 6 6 6h43.853c3.305 0 6-2.696 6-6V243.419c0-3.304-2.695-6-6-6z" data-original="#ffe177"/>
    <path fill="#ffd064" d="M203.788 237.419h-10c3.305 0 6 2.696 6 6v151.288c0 3.305-2.695 6-6 6h10c3.305 0 6-2.696 6-6V243.419c0-3.304-2.695-6-6-6z" data-original="#ffd064"/>
    <path fill="#6cf5c2" d="M307.496 178.799h-43.852c-3.305 0-6 2.695-6 6v209.909c0 3.305 2.695 6 6 6h43.852c3.305 0 6-2.695 6-6v-209.91c0-3.304-2.695-5.999-6-5.999z" data-original="#6cf5c2"/>
    <path fill="#00e499" d="M307.496 178.799h-10c3.305 0 6 2.695 6 6v209.909c0 3.305-2.695 6-6 6h10c3.305 0 6-2.695 6-6v-209.91c0-3.304-2.695-5.999-6-5.999z" data-original="#00e499"/>
    <path fill="#8ac9fe" d="M367.349 126.065h43.852c3.305 0 6 2.695 6 6v262.642c0 3.305-2.695 6-6 6h-43.852c-3.305 0-6-2.695-6-6V132.065c0-3.305 2.696-6 6-6z" data-original="#8ac9fe"/>
    <path fill="#60b7ff" d="M401.201 126.065h10c3.305 0 6 2.695 6 6v262.642c0 3.305-2.695 6-6 6h-10c3.305 0 6-2.695 6-6V132.065c0-3.305-2.695-6-6-6z" data-original="#60b7ff"/>
    <path fill="#9facba" d="M372.941 30.383a7.98 7.98 0 0 1-.813-15.938l44.667-2.425a7.98 7.98 0 0 1 8.307 9.093l.006.001-6.445 44.266a7.986 7.986 0 0 1-15.812-2.25l3.24-22.251c-55.083 48.951-112.739 89.185-170.967 122.373-62.903 35.853-126.459 63.46-188.149 84.944a7.976 7.976 0 0 1-5.25-15.062c60.834-21.186 123.504-48.408 185.524-83.757 57.179-32.59 113.821-72.11 167.976-120.203z" data-original="#9facba"/>
    <ellipse cx="363.624" cy="387.985" fill="#ffe177" data-original="#ffe177" rx="112.004" ry="112.005" transform="rotate(-9.25 363.773 388.638)"/>
    <path fill="#ffd064" d="M363.624 275.98c61.858 0 112.004 50.146 112.004 112.004s-50.146 112.005-112.004 112.005c-1.676 0-3.342-.044-5-.117 59.537-2.617 107.004-51.705 107.004-111.888 0-60.182-47.467-109.271-107.004-111.888a115.18 115.18 0 0 1 5-.116z" data-original="#ffd064"/>
    <circle cx="363.624" cy="387.985" r="87.343" fill="#eceff1" data-original="#eceff1" transform="rotate(-45 363.58 388.08)"/>
    <path fill="#d1d1d6" d="M363.624 300.642c1.679 0 3.345.052 5 .146-45.91 2.592-82.343 40.639-82.343 87.197s36.433 84.605 82.343 87.197a88.153 88.153 0 0 1-5 .146c-48.237 0-87.343-39.106-87.343-87.343s39.106-87.343 87.343-87.343z" data-original="#d1d1d6"/>
    <path fill="#a79ba7" d="M355.624 354.939a8 8 0 0 1 16 0v28.449l18.063 10.429a7.981 7.981 0 0 1-8 13.812l-21.56-12.448a8 8 0 0 1-4.503-7.197zm0-36.496a8 8 0 0 1 16 0v7.538a8 8 0 0 1-16 0zm-61.541 77.542a8 8 0 0 1 0-16h7.538a8 8 0 0 1 0 16zm77.541 61.541a8 8 0 0 1-16 0v-7.538a8 8 0 0 1 16 0zm61.542-77.541a8 8 0 0 1 0 16h-7.538a8 8 0 0 1 0-16zm-124.371-35.517a7.998 7.998 0 0 1 0-11.312 7.998 7.998 0 0 1 11.312 0l5.331 5.33a7.998 7.998 0 0 1 0 11.312 7.998 7.998 0 0 1-11.312 0zm11.312 98.346a8 8 0 0 1-11.312-11.312l5.331-5.331a7.998 7.998 0 0 1 11.312 0 7.998 7.998 0 0 1 0 11.312zm98.347-11.312a7.998 7.998 0 0 1 0 11.312 7.998 7.998 0 0 1-11.312 0l-5.33-5.33a7.998 7.998 0 0 1 0-11.312 7.998 7.998 0 0 1 11.312 0zm-11.313-98.347a7.998 7.998 0 0 1 11.312 0 7.998 7.998 0 0 1 0 11.312l-5.33 5.33a7.998 7.998 0 0 1-11.312 0 7.998 7.998 0 0 1 0-11.312z" data-original="#a79ba7"/>
  </g>
</svg>
