<svg xmlns="http://www.w3.org/2000/svg" xml:space="preserve" viewBox="0 0 512 512">
  <path fill="#01d0fb" d="M300.714 181.719c-3.144-12.387-16.171-22.523-28.952-22.523h-.121L256 182.526l-15.641-23.331h-.12c-12.781 0-25.809 10.137-28.954 22.523l-2.144 8.451c11.742 12.453 28.392 20.23 46.859 20.23s35.116-7.777 46.859-20.23z" data-original="#01d0fb"/>
  <path fill="#ffcebf" d="M234.172 116.992c0-16.467 9.772-22.769 21.828-22.769 12.057 0 21.828 6.302 21.828 22.769s-9.771 36.861-21.828 36.861c-12.056.001-21.828-20.394-21.828-36.861z" data-original="#ffcebf"/>
  <path fill="#fd4755" d="M203.206 221.05c-24.391-17.195-38.953-45.248-38.953-75.046 0-45.317 33.027-83.059 76.274-90.435v8.178c0 3.404 2.412 4.796 5.36 3.095l37.877-21.869c2.949-1.703 2.949-4.487 0-6.188l-37.877-21.869c-2.948-1.703-5.36-.31-5.36 3.095V30.53c-56.953 7.591-101.031 56.479-101.031 115.474 0 37.837 18.484 73.455 49.446 95.28a12.325 12.325 0 0 0 7.122 2.263c3.889 0 7.718-1.827 10.128-5.246 3.939-5.589 2.602-13.312-2.986-17.251z" data-original="#fd4755"/>
  <path fill="#ffd15b" d="M372.505 146.004c0-37.835-18.484-73.455-49.444-95.28-5.587-3.939-13.31-2.604-17.25 2.984-3.939 5.588-2.603 13.312 2.985 17.251 24.39 17.194 38.952 45.247 38.952 75.045 0 45.315-33.027 83.059-76.274 90.436v-8.179c0-3.404-2.412-4.795-5.36-3.094l-37.877 21.868c-2.949 1.701-2.949 4.488 0 6.189l37.877 21.868c2.948 1.701 5.36.31 5.36-3.095v-10.52c56.952-7.589 101.031-56.478 101.031-115.473z" data-original="#ffd15b"/>
  <path fill="#ffcebf" d="M492.849 159.367c-9.841-1.455-19.244 6.458-20.886 17.583l-1.055 7.127c-3.305-4.793-8.442-7.905-14.205-7.921-9.832-.026-17.91 8.948-18.125 20.017a15.896 15.896 0 0 0-3.945-.521c-9.945-.025-18.113 9.157-18.142 20.403l-.163 62.491a22.41 22.41 0 0 0-9.611 1.196s-60.342 21.006-76.523 34.345c-11.003 9.07-27.92 33.25-32.861 46.627-6.017 16.288-.485 103.733-.485 103.733l83.334 14.177 11.241-48.17 68.735-79.184 32.68-68.142 14.914-100.885c1.642-11.125-5.062-21.418-14.903-22.876z" data-original="#ffcebf"/>
  <path fill="#ffd15b" d="M393.53 495.693c5.949.879 11.536-3.27 12.416-9.218l3.831-25.947c.881-5.95-3.269-11.535-9.218-12.414l-112.22-16.572c-5.949-.879-11.536 3.27-12.414 9.218l-3.834 25.951c-.88 5.95 3.269 11.536 9.217 12.414z" data-original="#ffd15b"/>
  <circle cx="380.377" cy="469.442" r="13.29" fill="#3a313a" data-original="#3a313a"/>
  <path fill="#ffcebf" d="M19.151 159.367c9.841-1.455 19.244 6.458 20.886 17.583l1.055 7.127c3.305-4.793 8.442-7.905 14.205-7.921 9.832-.026 17.91 8.948 18.125 20.017a15.896 15.896 0 0 1 3.945-.521c9.945-.025 18.113 9.157 18.142 20.403l.163 62.491a22.41 22.41 0 0 1 9.611 1.196s60.342 21.006 76.523 34.345c11.003 9.07 27.92 33.25 32.861 46.627 6.017 16.288.485 103.733.485 103.733l-83.334 14.177-11.241-48.17-68.735-79.184-32.68-68.142L4.247 182.245c-1.641-11.127 5.063-21.42 14.904-22.878z" data-original="#ffcebf"/>
  <path fill="#ffd15b" d="M118.47 495.693c-5.949.879-11.536-3.27-12.416-9.218l-3.831-25.947c-.881-5.95 3.269-11.535 9.218-12.414l112.22-16.572c5.949-.879 11.536 3.27 12.414 9.218l3.834 25.951c.88 5.95-3.269 11.536-9.217 12.414z" data-original="#ffd15b"/>
  <circle cx="131.623" cy="469.442" r="13.29" fill="#3a313a" data-original="#3a313a"/>
  <path fill="#62dbfb" d="M259.505 197.896c-13.731 0-26.729-4.997-36.911-14.13 0 0 .911-3.304.919-3.337 1.768-6.962 8.587-13.278 15.931-15.168l12.585 18.772c1.675 2.498 4.469 3.988 7.475 3.988s5.8-1.49 7.475-3.987l12.585-18.772c7.346 1.896 14.174 8.246 15.952 15.248.008.033.898 3.256.898 3.256-10.18 9.133-23.177 14.13-36.909 14.13z" data-original="#62dbfb"/>
  <path fill="#ffdfcf" d="M259.505 141.349c-4.115 0-12.828-13.182-12.828-27.861 0-9.65 3.836-13.769 12.828-13.769s12.828 4.118 12.828 13.769c0 14.679-8.713 27.861-12.828 27.861z" data-original="#ffdfcf"/>
  <path fill="#fe646f" d="M199.568 231.042a3.296 3.296 0 0 1-1.935-.618C169.059 210.282 152 177.414 152 142.499c0-53.661 40.076-99.47 93.22-106.553 4.453-.593 7.811-4.428 7.811-8.921v-1.121l21.597 12.47-21.673 12.513a9.001 9.001 0 0 0-10.443-7.693c-23.144 3.947-44.342 16.03-59.684 34.021-15.522 18.203-24.071 41.389-24.071 65.285 0 32.718 15.988 63.522 42.768 82.402a3.383 3.383 0 0 1 .815 4.709 3.393 3.393 0 0 1-2.772 1.431z" data-original="#fe646f"/>
  <path fill="#fee45a" d="m244.381 246.625 21.674-12.513a8.979 8.979 0 0 0 3.12 5.701 9.012 9.012 0 0 0 7.308 1.995c23.159-3.951 44.357-16.034 59.698-34.025 15.522-18.203 24.071-41.389 24.071-65.284 0-32.718-15.987-63.522-42.766-82.401a3.352 3.352 0 0 1-1.379-2.186 3.357 3.357 0 0 1 .564-2.523 3.392 3.392 0 0 1 2.771-1.433c.703 0 1.354.208 1.936.618 28.573 20.143 45.631 53.012 45.631 87.925 0 53.662-40.076 99.471-93.22 106.554-4.453.593-7.811 4.428-7.811 8.921v1.12z" data-original="#fee45a"/>
  <g fill="#ffdfcf">
    <path d="M307.521 421.254c-1.475-46.583.722-58.116 1.76-60.926 4.456-12.062 20.514-34.862 30.144-42.8 12.3-10.141 57.424-27.112 73.774-32.796a13.53 13.53 0 0 1 4.534-.791c.414 0 .83.02 1.239.059.083.009.17.015.257.019 3.763.416 6.782 2.502 7.829 5.458.73 2.059.458 4.409-.763 6.635a4.231 4.231 0 0 0-.092.156l.004-.008c-1.45 2.548-3.905 4.537-6.912 5.603-.349.123-.7.272-1.041.444l-47.978 24.236c-4.43 2.237-6.213 7.662-3.975 12.092a8.96 8.96 0 0 0 8.036 4.942c1.398 0 2.8-.334 4.053-.967l47.497-23.994c6.57-2.472 12.096-7.028 15.605-12.871.109-.156.206-.305.296-.458l30.165-51.083a8.961 8.961 0 0 0 1.154-3.26l10.216-69.069c.01-.068.019-.14.026-.211l1.021-6.903c.834-5.648 5.068-10.071 9.641-10.071.339 0 .683.025 1.022.076 4.958.733 8.241 6.413 7.32 12.66l-14.715 99.536-31.567 65.819-67.94 78.27a9.016 9.016 0 0 0-1.968 3.854l-1.797 7.698z" data-original="#ffdfcf"/>
    <path d="M451.073 193.072c.005-.078.008-.16.01-.246.117-6.05 4.292-11.175 9.115-11.175 1.656.005 3.278.619 4.703 1.76l-9.342 63.158-4.646 7.868.16-61.365zm-18.772 76.609a28.07 28.07 0 0 0-3.449-1.647l.145-55.46c.01-3.933 1.618-7.414 4.049-9.471l-.171 65.177z" data-original="#ffdfcf"/>
  </g>
  <path fill="#fee45a" d="M398.631 483.306c-.095 0-.188-.007-.277-.02l-.453-.067a22.602 22.602 0 0 0 2.817-2.726l-.171 1.161c-.137.926-.978 1.652-1.916 1.652zm-112.503-16.589a1.886 1.886 0 0 1-1.258-.768 1.888 1.888 0 0 1-.37-1.427l3.834-25.953c.137-.925.978-1.649 1.916-1.649.092 0 .187.007.274.02l79.335 11.717c-4.215 3.426-7.195 8.362-8.03 14.026a22.127 22.127 0 0 0 3.585 15.74zm118.09-9.924a22.44 22.44 0 0 0-1.869-3.339l.4.059c.506.075.941.34 1.258.767.318.429.446.922.371 1.428z" data-original="#fee45a"/>
  <path fill="#685e68" d="M383.899 470.229a4.38 4.38 0 0 1-.643-.048c-1.151-.17-2.126-.753-2.819-1.687s-.97-2.035-.8-3.186c.304-2.055 2.161-3.664 4.228-3.664.212 0 .43.017.646.048a4.208 4.208 0 0 1 2.817 1.687c.693.933.97 2.034.8 3.186-.305 2.055-2.162 3.664-4.229 3.664z" data-original="#685e68"/>
  <path fill="#ffdfcf" d="m86.134 268.279-.171-65.192c2.431 2.054 4.04 5.542 4.049 9.487l.145 55.459a28.217 28.217 0 0 0-3.449 1.647z" data-original="#ffdfcf"/>
  <path fill="#ffdfcf" d="M132.846 424.904a9.029 9.029 0 0 0-1.97-3.855l-67.939-78.268-31.567-65.819-14.715-99.537c-.921-6.245 2.362-11.926 7.318-12.659.34-.051.686-.076 1.025-.076 4.572 0 8.807 4.424 9.641 10.072l1.022 6.904c.009.087.02.173.033.256l10.209 69.022a8.978 8.978 0 0 0 1.152 3.258l30.169 51.09c.095.16.191.308.291.45 3.51 5.844 9.037 10.402 15.608 12.874l47.495 23.993a9.036 9.036 0 0 0 4.055.968 8.959 8.959 0 0 0 8.036-4.942c2.238-4.43.455-9.854-3.975-12.092l-47.965-24.23a9.072 9.072 0 0 0-1.056-.451c-3.004-1.064-5.459-3.054-6.909-5.602l.004.008a6.4 6.4 0 0 0-.093-.156c-1.221-2.226-1.493-4.576-.763-6.635 1.043-2.945 4.041-5.024 7.85-5.459a3.5 3.5 0 0 0 .183-.013c.459-.043.876-.063 1.289-.063 1.527 0 3.052.266 4.533.789 16.397 5.716 61.573 22.735 73.778 32.798 9.63 7.938 25.688 30.738 30.144 42.8 1.038 2.81 3.235 14.343 1.76 60.926l-76.846 11.349z" data-original="#ffdfcf"/>
  <path fill="#ffdfcf" d="m63.452 246.569-9.342-63.156c1.43-1.143 3.066-1.757 4.749-1.762 4.792 0 8.952 5.125 9.069 11.191.001.065.009.22.009.225l.161 61.37z" data-original="#ffdfcf"/>
  <path fill="#fee45a" d="M120.381 483.306c-.939 0-1.782-.726-1.918-1.651l-.172-1.161c.859.989 1.802 1.9 2.817 2.726l-.448.066c-.092.013-.187.02-.279.02zm33.214-4.883c3.136-4.627 4.407-10.179 3.585-15.741-.835-5.663-3.815-10.6-8.03-14.025l79.331-11.716c.092-.014.187-.021.279-.021.938 0 1.779.725 1.916 1.649l3.834 25.953c.075.507-.053 1-.371 1.428a1.89 1.89 0 0 1-1.257.767zm-38.964-22.716a1.886 1.886 0 0 1 .37-1.426 1.892 1.892 0 0 1 1.259-.769l.401-.059a22.38 22.38 0 0 0-1.869 3.338z" data-original="#fee45a"/>
  <path fill="#685e68" d="M135.111 470.229c-2.067 0-3.924-1.609-4.228-3.665a4.21 4.21 0 0 1 .8-3.186 4.206 4.206 0 0 1 2.818-1.686c.216-.032.432-.048.645-.048 2.067 0 3.924 1.609 4.228 3.665a4.21 4.21 0 0 1-.8 3.184 4.203 4.203 0 0 1-2.819 1.688 4.269 4.269 0 0 1-.644.048z" data-original="#685e68"/>
  <path fill="#3a313a" d="M256 214.4c-37.714 0-68.396-30.683-68.396-68.397 0-37.713 30.682-68.395 68.396-68.395s68.396 30.682 68.396 68.395c0 37.715-30.682 68.397-68.396 68.397zm0-128.792c-33.302 0-60.396 27.093-60.396 60.395 0 33.304 27.094 60.397 60.396 60.397s60.396-27.094 60.396-60.397c0-33.302-27.094-60.395-60.396-60.395z" data-original="#3a313a"/>
</svg>
