<svg xmlns="http://www.w3.org/2000/svg" xml:space="preserve" viewBox="0 0 512 512">
  <path fill="#eff6ff" fill-rule="evenodd" d="M84.428 0h341.454v157.693H84.428zm0 255.491v101.128c2.044 0 55.892 143.267 55.892 143.267h285.562V255.492c-10.221 35.743-320.195 74.261-341.454-.001z" clip-rule="evenodd" data-original="#eff6ff"/>
  <path fill="#d9eeff" fill-rule="evenodd" d="M284.167 31.393c68.04 11.155 123.085 61.062 141.715 126.3V0H259.637c8.702 9.257 16.908 19.77 24.53 31.393zM365.61 345.61a177.975 177.975 0 0 1-32.939 20.763c-7.622 35.014-18.864 66.961-32.939 94.528-7.271 14.222-15.331 27.304-24.004 38.985h150.154V255.492c-10.221 35.744-31.362 66.903-59.6 89.593-.234.174-.439.349-.672.525z" clip-rule="evenodd" data-original="#d9eeff"/>
  <path fill="#9fd4fe" fill-rule="evenodd" d="M407.514 206.256c0-84.132-68.215-152.319-152.344-152.319s-152.344 68.187-152.344 152.319c0 42.752 17.609 81.358 45.934 109.012-.235 71.108 258.754 93.419 258.754-109.012z" clip-rule="evenodd" data-original="#9fd4fe"/>
  <path fill="#ffd772" fill-rule="evenodd" d="M205.41 250.001c-26.281 5.607-46.372 28.56-47.482 56.185 20.733 20.237 47.745 34.079 77.851 38.255v-55.776l-12.644 8.556z" clip-rule="evenodd" data-original="#ffd772"/>
  <path fill="#eff6ff" fill-rule="evenodd" d="m205.41 250.001 17.725 47.22 12.644-8.556 19.39-13.112-28.734-26.837h-8.614c-4.264 0-8.41.438-12.411 1.285z" clip-rule="evenodd" data-original="#eff6ff"/>
  <path fill="#eb5468" fill-rule="evenodd" d="M235.78 288.665v55.776c6.337.905 12.819 1.343 19.39 1.343 6.57 0 13.053-.438 19.39-1.343v-55.776l-19.39-13.112z" clip-rule="evenodd" data-original="#eb5468"/>
  <path fill="#eff6ff" fill-rule="evenodd" d="m255.169 275.553 19.39 13.112 12.615 8.556 17.755-47.22a59.834 59.834 0 0 0-12.411-1.285h-8.614z" clip-rule="evenodd" data-original="#eff6ff"/>
  <path fill="#ffd772" fill-rule="evenodd" d="m304.929 250.001-17.755 47.22-12.615-8.556v55.776c30.078-4.176 57.118-18.018 77.851-38.255-1.138-27.625-21.2-50.578-47.481-56.185z" clip-rule="evenodd" data-original="#ffd772"/>
  <path fill="#fed1a3" fill-rule="evenodd" d="M226.435 222.142v26.574l28.734 26.837 28.734-26.837v-26.574c-17.287 15.302-40.181 15.302-57.468 0z" clip-rule="evenodd" data-original="#fed1a3"/>
  <path fill="#ffe5c1" fill-rule="evenodd" d="M226.435 222.142c17.287 15.302 40.181 15.302 57.469 0 14.513-12.82 25.084-36.474 25.084-70.874 0-1.519-.058-3.037-.204-4.526-33.932 15.127-77.18 5.665-103.724-15.068a53.262 53.262 0 0 0-3.709 19.595c0 34.399 10.571 58.053 25.084 70.873z" clip-rule="evenodd" data-original="#ffe5c1"/>
  <path fill="#375e7d" fill-rule="evenodd" d="M205.06 131.673c26.544 20.734 69.792 30.195 103.724 15.068-2.307-27.509-25.551-49.294-53.614-49.294-22.69.001-42.226 14.223-50.11 34.226z" clip-rule="evenodd" data-original="#375e7d"/>
  <path fill="#375e7d" fill-rule="evenodd" d="M255.169 67.37c76.888 0 139.204 62.347 139.204 139.208 0 39.044-16.09 74.349-41.963 99.609-20.733 20.237-47.774 34.079-77.851 38.255-6.337.905-12.819 1.343-19.39 1.343-6.57 0-13.053-.438-19.39-1.343-30.107-4.176-57.118-18.018-77.851-38.255-25.902-25.26-41.963-60.566-41.963-99.609.001-76.861 62.317-139.208 139.204-139.208zm0-38.343c-81.093 0-149.483 54.375-170.741 128.665-4.439 15.536-6.804 31.947-6.804 48.885 0 16.967 2.365 33.378 6.804 48.885v.029c21.259 74.262 89.649 128.636 170.741 128.636 42.05 0 80.684-14.601 111.112-39.044 28.238-22.69 49.38-53.849 59.6-89.593v-.029c4.468-15.506 6.833-31.918 6.833-48.885 0-16.937-2.365-33.349-6.833-48.885-21.229-74.289-89.619-128.664-170.712-128.664z" clip-rule="evenodd" data-original="#375e7d"/>
  <path fill="#2b4d66" d="M278.005 434.139h-49.233a7.726 7.726 0 1 1 0-15.452h49.233c4.268 0 7.726 3.459 7.726 7.726s-3.458 7.726-7.726 7.726zm30.983 34.488H201.351a7.726 7.726 0 1 1 0-15.452h107.637c4.268 0 7.726 3.459 7.726 7.726s-3.458 7.726-7.726 7.726z" data-original="#2b4d66"/>
  <path fill="#ffd772" fill-rule="evenodd" d="m12.446 438.006 14.659 21.435 1.08 27.479.496 17.171c.467 5.811 5.198 8.79 10.629 7.68l17.404-4.264 27.712-6.804 27.741 6.804 17.404 4.264c5.402 1.11 10.133-1.869 10.629-7.68l.117-4.205.38-12.966 1.051-27.479 15.856-23.099 9.753-14.426c2.833-4.585 1.372-9.812-4.234-12.09l-16.849-5.928-26.895-9.432-17.839-21.406-11.213-13.433c-1.81-1.986-3.855-3.008-5.899-3.008s-4.059 1.022-5.87 3.008L67.345 373.06l-17.871 21.405-26.865 9.432-16.879 5.929c-5.577 2.278-7.038 7.505-4.205 12.09z" clip-rule="evenodd" data-original="#ffd772"/>
  <path fill="#ffd772" fill-rule="evenodd" d="m1.525 421.915 10.921 16.09 14.659 21.435 1.08 27.479.496 17.171c.467 5.811 5.198 8.79 10.629 7.68l17.404-4.264 27.712-6.804 27.741 6.804 17.404 4.264c5.402 1.11 10.133-1.869 10.629-7.68l.117-4.205.38-12.966 1.051-27.479 15.856-23.099 9.753-14.426c2.833-4.585 1.372-9.812-4.234-12.09l-16.849-5.928-26.895-9.432-17.839-21.405-11.213-13.433c-1.81-1.986-3.855-3.008-5.899-3.008s-4.059 1.022-5.87 3.008L67.345 373.06l-17.871 21.405-26.865 9.432-16.879 5.929c-5.578 2.277-7.038 7.505-4.205 12.089z" clip-rule="evenodd" data-original="#ffd772"/>
  <path fill="#fbba58" fill-rule="evenodd" d="M90.327 359.627c-1.81-1.986-3.855-3.008-5.899-3.008-.321 0-.672.029-.993.088a157.8 157.8 0 0 1 .993 3.972c4.439 18.135 6.95 39.102 6.95 61.412 0 30.429-4.701 58.317-12.469 79.985l5.519-1.372 27.741 6.804 17.404 4.264c5.402 1.11 10.133-1.869 10.629-7.68l.117-4.205.38-12.966 1.051-27.479 15.856-23.099 9.753-14.426c2.833-4.585 1.372-9.812-4.234-12.09l-16.849-5.928-26.895-9.432-17.841-21.407z" clip-rule="evenodd" data-original="#fbba58"/>
  <path fill="#2b4d66" fill-rule="evenodd" d="M245.825 98.266c18.543 8.527 31.479 27.304 31.479 48.943 0 2.336-.029 4.614-.117 6.833 10.892-.526 21.638-2.862 31.596-7.301-2.307-27.509-25.551-49.294-53.614-49.294a54.838 54.838 0 0 0-9.344.819z" clip-rule="evenodd" data-original="#2b4d66"/>
  <path fill="#fed1a3" fill-rule="evenodd" d="M308.783 146.742c-9.958 4.439-20.704 6.775-31.596 7.301-1.84 43.103-20.996 67.749-42.634 73.94 15.915 9.111 34.633 7.155 49.351-5.84 14.513-12.82 25.084-36.474 25.084-70.874 0-1.519-.059-3.038-.205-4.527z" clip-rule="evenodd" data-original="#fed1a3"/>
  <path fill="#ffbc85" fill-rule="evenodd" d="M226.435 235.429c11.038 9.754 24.354 13.287 37.057 10.571 6.016-1.285 5.256.263 5.256 6.454v10.396l15.156-14.134v-26.574c-14.718 12.995-33.436 14.952-49.351 5.84a48.553 48.553 0 0 1-8.118-5.84z" clip-rule="evenodd" data-original="#ffbc85"/>
  <path fill="#fbba58" fill-rule="evenodd" d="M297.599 269.538c21.025 7.709 36.619 26.895 39.101 49.878a138.35 138.35 0 0 0 15.71-13.229c-1.139-27.625-21.2-50.578-47.482-56.185z" clip-rule="evenodd" data-original="#fbba58"/>
  <path fill="#d9eeff" fill-rule="evenodd" d="M284.313 265.011a59.447 59.447 0 0 1 13.287 4.526l7.33-19.536a59.834 59.834 0 0 0-12.411-1.285h-8.614l-15.156 14.134-.905.847h4.059c4.262 0 8.409.467 12.41 1.314z" clip-rule="evenodd" data-original="#d9eeff"/>
  <path fill="#375e7d" d="M416.467 405.51a7.703 7.703 0 0 1-5.533-2.333l-51.381-52.7a7.728 7.728 0 0 1 11.065-10.787l51.381 52.7a7.726 7.726 0 0 1-5.532 13.12z" data-original="#375e7d"/>
  <path fill="#85beef" fill-rule="evenodd" d="M352.235 202.08c0 23.625-5.899 45.877-16.265 65.384 9.666 10.192 15.827 23.8 16.44 38.722 25.873-25.26 41.963-60.566 41.963-99.609 0-76.861-62.316-139.208-139.204-139.208-2.132 0-4.263.058-6.366.146 59.542 15.799 103.432 70.057 103.432 134.565z" clip-rule="evenodd" data-original="#85beef"/>
  <path fill="#2b4d66" fill-rule="evenodd" d="M394.373 206.577c0 39.044-16.09 74.349-41.963 99.609a133.43 133.43 0 0 1-7.388 6.717c-16.937 21.084-38.604 38.226-63.367 49.79-20.85 9.754-43.948 15.565-68.273 16.499 13.404 3.241 27.391 4.935 41.787 4.935 42.05 0 80.684-14.601 111.112-39.044 28.238-22.69 49.38-53.849 59.6-89.593v-.029c4.468-15.506 6.833-31.918 6.833-48.885 0-16.937-2.365-33.349-6.833-48.885-21.23-74.291-89.62-128.665-170.712-128.665-2.278 0-4.555.058-6.833.146 30.545 7.359 58.023 22.632 80.129 43.511a178.693 178.693 0 0 1 35.772 47.395c18.864 23.743 30.136 53.822 30.136 86.499z" clip-rule="evenodd" data-original="#2b4d66"/>
  <path fill="#f5a96c" fill-rule="evenodd" d="M399.016 380.127c-13.082 12.323-13.696 33.145-1.343 46.227l17.813 18.894 34.867-10.717 12.703-34.167-17.813-18.894a30.48 30.48 0 0 0-5.139-4.41c-12.412-8.614-29.67-7.709-41.088 3.067zm86.174 43.716-34.837 10.688-12.732 34.167 2.482 2.657 15.331 16.266c12.352 13.083 33.144 13.667 46.226 1.343 13.082-12.353 13.696-33.145 1.343-46.227z" clip-rule="evenodd" data-original="#f5a96c"/>
  <path fill="#ea9a58" fill-rule="evenodd" d="m444.541 417.827 18.514-17.463-17.813-18.894a30.48 30.48 0 0 0-5.139-4.41c-12.411-8.615-29.669-7.709-41.087 3.066a32.197 32.197 0 0 0-7.476 10.6c9.899-3.65 21.2-2.365 30.048 3.767a31.973 31.973 0 0 1 5.139 4.439zm40.649 6.016-18.514 17.434 17.842 18.923c9.228 9.783 11.213 23.946 6.103 35.598a31.976 31.976 0 0 0 11.038-6.833c13.082-12.353 13.696-33.145 1.343-46.227z" clip-rule="evenodd" data-original="#ea9a58"/>
  <path fill="#eb5468" fill-rule="evenodd" d="m463.055 400.364-47.569 44.884 22.135 23.449 47.569-44.854z" clip-rule="evenodd" data-original="#eb5468"/>
  <path fill="#e5384f" fill-rule="evenodd" d="m463.055 400.364-18.514 17.463 22.135 23.449 18.514-17.433z" clip-rule="evenodd" data-original="#e5384f"/>
</svg>
