<svg xmlns="http://www.w3.org/2000/svg" xml:space="preserve" viewBox="0 0 464 442.67">
  <g data-name="Calque 2">
    <g data-name="06- Absence">
      <path fill="#fcf4f6" d="M464 36.33v304.12a26 26 0 0 1-24 25.92L82.06 393.52a26.16 26.16 0 0 1-18.47-5.84l-12-11.19c-6-4.94-7.62-12.31-7.62-20.09V53.22A26 26 0 0 1 68 27.29L419.39.15c6.68-.51 13.43.07 18.61 4.32l16.51 11.77A26.09 26.09 0 0 1 464 36.33z" data-original="#fcf4f6"/>
      <path fill="#f0e3e7" d="M461 24.26 95.69 52a26 26 0 0 0-24 25.92v314.25a25.72 25.72 0 0 1-8.06-4.49l-12-11.19c-6-4.94-7.62-12.31-7.62-20.09V53.22A26 26 0 0 1 68 27.29L419.39.15c6.68-.51 13.43.07 18.61 4.32l16.51 11.77a25.61 25.61 0 0 1 6.49 8.02z" data-original="#f0e3e7"/>
      <path fill="#88ffc3" d="M308.34 80.17V126a18 18 0 0 1-16.67 18l-47.94 3.64a18 18 0 0 1-19.4-18V83.81a18 18 0 0 1 16.67-18l47.94-3.64a18 18 0 0 1 19.4 18zm-103.98 9.35v45.87a18 18 0 0 1-16.66 18L139.75 157a18 18 0 0 1-19.39-18V93.15a18 18 0 0 1 16.66-18L185 71.54a18 18 0 0 1 19.36 17.98zm207.95-18.28v45.87a18 18 0 0 1-16.66 18l-47.95 3.64a18 18 0 0 1-19.39-18V74.88A18 18 0 0 1 345 56.9l47.94-3.64a18 18 0 0 1 19.37 17.98z" data-original="#88ffc3"/>
      <path fill="#ff9fb3" d="M308.34 186.86v45.87a18 18 0 0 1-16.67 18l-47.94 3.64a18 18 0 0 1-19.4-18V190.5a18 18 0 0 1 16.67-18l47.94-3.64a18 18 0 0 1 19.4 18z" data-original="#ff9fb3"/>
      <path fill="#88ffc3" d="M204.36 196.21v45.87a18 18 0 0 1-16.66 18l-47.95 3.64a18 18 0 0 1-19.39-18v-45.88a18 18 0 0 1 16.66-18l47.98-3.61a18 18 0 0 1 19.36 17.98zm207.95-18.28v45.87a18 18 0 0 1-16.66 18l-47.95 3.63a18 18 0 0 1-19.39-18v-45.87a18 18 0 0 1 16.67-18l47.94-3.56a18 18 0 0 1 19.39 17.93zM308.34 293.55v45.87a18 18 0 0 1-16.67 18L243.73 361a18 18 0 0 1-19.4-18v-45.82a18 18 0 0 1 16.67-18l47.94-3.64a18 18 0 0 1 19.4 18.01zm103.97-8.94v45.87a18 18 0 0 1-16.66 18l-47.95 3.62a18 18 0 0 1-19.39-18v-45.85a18 18 0 0 1 16.67-18l47.94-3.64a18 18 0 0 1 19.39 18z" data-original="#88ffc3"/>
      <path fill="#51518e" d="M361.45 125.12a10 10 0 0 1-6-2l-13.79-10.37a10 10 0 0 1 12-16l5.46 4.1 22.58-32.59a10 10 0 0 1 16.47 11.41l-28.49 41.13A10 10 0 0 1 363 125a9.47 9.47 0 0 1-1.55.12zM259 135.51a10 10 0 0 1-6-2l-13.78-10.36a10 10 0 0 1 12-16l5.46 4.1 22.55-32.57a10 10 0 0 1 16.48 11.4l-28.49 41.12a10 10 0 0 1-6.64 4.18 9.47 9.47 0 0 1-1.58.13zm0 213.38a10.07 10.07 0 0 1-6-2l-13.78-10.37a10 10 0 0 1 12-16l5.46 4.1L279.23 292a10 10 0 0 1 16.48 11.41l-28.49 41.13a10 10 0 0 1-6.64 4.19 10.65 10.65 0 0 1-1.58.16zM155 144.86a10 10 0 0 1-6-2l-13.78-10.37a10 10 0 1 1 12-16l5.45 4.1L175.26 88a10 10 0 1 1 16.47 11.41l-28.49 41.13a10 10 0 0 1-6.63 4.19 10.9 10.9 0 0 1-1.61.13zm0 106.68a10 10 0 0 1-6-2l-13.78-10.36a10 10 0 1 1 12-16l5.45 4.1 22.56-32.57a10 10 0 1 1 16.47 11.4l-28.49 41.14a10 10 0 0 1-6.63 4.19 10.87 10.87 0 0 1-1.58.1zm206.45-18.27a10 10 0 0 1-6-2l-13.79-10.36a10 10 0 0 1 12-16l5.46 4.1 22.56-32.57a10 10 0 0 1 16.47 11.4L369.68 229a10 10 0 0 1-6.64 4.19 10.65 10.65 0 0 1-1.59.08zm-69.53-13.18-12.16-10.26 9.05-13.08a10 10 0 0 0-16.47-11.41l-8 11.51-10.7-9a10 10 0 0 0-12.92 15.31l12.17 10.26-9.06 13.08a10 10 0 0 0 16.47 11.41l8-11.51 10.7 9a10 10 0 1 0 12.92-15.31zM361.45 340a10 10 0 0 1-6-2l-13.79-10.36a10 10 0 0 1 12-16l5.46 4.11 22.58-32.65a10 10 0 1 1 16.47 11.4l-28.49 41.14a10 10 0 0 1-6.64 4.18 9.47 9.47 0 0 1-1.59.18z" data-original="#51518e"/>
      <circle cx="104.7" cy="337.97" r="104.7" fill="#a1edff" data-original="#a1edff"/>
      <path fill="#ffebd3" d="M143.54 402.58a48.41 48.41 0 0 1-29.46 10.07C85 413 71.38 397.59 65 383.53a64.72 64.72 0 0 1-5.6-22.32V305.7l70.76-10.77c44.48 31.61 42.02 85.42 13.38 107.65z" data-original="#ffebd3"/>
      <path fill="#ffd5b7" d="M143.54 402.58a48.41 48.41 0 0 1-29.46 10.07C85 413 71.38 397.59 65 383.53a43.23 43.23 0 0 1 6.26-7.46s22 31.74 72.28 26.51z" data-original="#ffd5b7"/>
      <path fill="#51518e" d="M162.85 342.28a73.8 73.8 0 0 0-13.3-28.68C116.59 334.39 71 312 71 312a61.19 61.19 0 0 1-1.29 40.39l-38.17 7.57c-29.74-69.31 19.39-75.5 19.39-75.5 21-40.42 78.81-6.67 78.81-6.67s29.43-8.39 45.22 3.86a24.06 24.06 0 0 1 8.56 13.28c6.33 23.85-12.52 41.15-20.67 47.35z" data-original="#51518e"/>
      <path fill="#3e3e7a" d="M162.85 342.28a73.8 73.8 0 0 0-13.3-28.68 54.21 54.21 0 0 0 11.71-10 92.9 92.9 0 0 0 13.7-22 24.06 24.06 0 0 1 8.56 13.28c6.33 23.9-12.52 41.2-20.67 47.4z" data-original="#3e3e7a"/>
      <path fill="#ffebd3" d="M73.55 352.16c-4.38-7.21-11.88-12-20.4-12-13.52 0-24.47 12-24.47 26.72s11 26.73 24.47 26.73c11.71 0 21.5-9 23.9-21z" data-original="#ffebd3"/>
      <path fill="#ffd5b7" d="m49.48 352.64 9.43 27.22c11.56-22.59-9.43-27.22-9.43-27.22z" data-original="#ffd5b7"/>
    </g>
  </g>
</svg>
