<svg xmlns="http://www.w3.org/2000/svg" xml:space="preserve" style="enable-background:new 0 0 512 512" viewBox="0 0 512 512">
  <path fill="#56788b" d="M423.118 53.5v405c0 29.5-23.969 53.5-53.427 53.5H142.033c-29.459 0-53.427-24-53.427-53.5v-405C88.605 24 112.574 0 142.033 0h227.658c29.458 0 53.427 24 53.427 53.5z" data-original="#56788b"/>
  <path fill="#415e6f" d="M423.118 53.5v405c0 29.5-23.969 53.5-53.427 53.5h-19.999c29.458 0 53.427-24 53.427-53.5v-405C403.119 24 379.15 0 349.692 0h19.999c29.458 0 53.427 24 53.427 53.5z" data-original="#415e6f"/>
  <path fill="#d9f0f4" d="M393.16 52.26v407.48c0 13.1-10.639 23.76-23.729 23.76H142.293c-13.089 0-23.729-10.66-23.729-23.76V52.26c0-13.1 10.639-23.76 23.729-23.76h23.709c3.25 0 6.14 2.1 7.14 5.2l5.87 18.23c1.46 4.53 5.62 7.57 10.369 7.57h132.963c4.74 0 8.91-3.04 10.37-7.57l5.87-18.23c1-3.1 3.88-5.2 7.14-5.2h23.709c13.087 0 23.727 10.66 23.727 23.76z" data-original="#d9f0f4"/>
  <path fill="#bae1e5" d="M393.16 52.26v407.48c0 13.1-10.639 23.76-23.729 23.76h-19.999c13.089 0 23.729-10.66 23.729-23.76V52.26c0-13.1-10.639-23.76-23.729-23.76h19.999c13.089 0 23.729 10.66 23.729 23.76z" data-original="#bae1e5"/>
  <path fill="#415e6f" d="M296.474 21.985h-81.227a7.5 7.5 0 0 0 0 15h81.227a7.5 7.5 0 0 0 0-15z" data-original="#415e6f"/>
  <path fill="#56788b" d="M296.474 434.722h-81.227a7.5 7.5 0 0 0 0 15h81.227a7.5 7.5 0 0 0 0-15z" data-original="#56788b"/>
  <path fill="#4dd4f7" d="M171.741 120.7v75.62c0 12.64-10.279 22.93-22.909 22.93H51.577l-39.538 30.08a7.442 7.442 0 0 1-4.54 1.53c-1.14 0-2.28-.25-3.33-.78A7.502 7.502 0 0 1 0 243.36V120.7c0-12.64 10.28-22.93 22.909-22.93h125.924c12.629 0 22.908 10.29 22.908 22.93z" data-original="#4dd4f7"/>
  <path fill="#00c2f3" d="M171.741 120.7v75.62c0 12.64-10.279 22.93-22.909 22.93h-19.999c12.629 0 22.909-10.29 22.909-22.93V120.7c0-12.64-10.279-22.93-22.909-22.93h19.999c12.63 0 22.909 10.29 22.909 22.93z" data-original="#00c2f3"/>
  <path fill="#fff" d="M125.809 133.444H45.932a7.5 7.5 0 0 0 0 15h79.877a7.5 7.5 0 0 0 0-15zm-9.984 34H45.932a7.5 7.5 0 0 0 0 15h69.893a7.5 7.5 0 0 0 0-15z" data-original="#ffffff"/>
  <path fill="#ff6b81" d="M455.597 183.28c-4.65-4.652-10.834-7.214-17.411-7.214s-12.761 2.562-17.411 7.214l-11.323 11.327a7.498 7.498 0 0 0 0 10.605l24.216 24.224a7.497 7.497 0 0 0 10.606 0l11.323-11.327c9.6-9.602 9.6-25.226 0-34.829zM333.092 344.881l-39.037-39.051a7.498 7.498 0 0 0-10.606 0c-13.686 13.69-13.686 35.966 0 49.656 6.63 6.633 15.445 10.286 24.822 10.286 9.376 0 18.192-3.653 24.822-10.286a7.499 7.499 0 0 0-.001-10.605z" data-original="#ff6b81"/>
  <path fill="#fbdf63" d="M372.862 393.523a18.663 18.663 0 0 1-4.256.495c-4.836 0-9.51-1.902-13.031-5.423l-14.141-14.142-91.071-91.118c-4.561-4.561-6.406-11.031-4.935-17.31 1.471-6.265 5.982-11.243 12.091-13.308l33.876-11.476 36.053-36.07c14.191-14.192 33.063-22.019 53.129-22.019 16.694.007 32.568 5.417 45.585 15.408a75.37 75.37 0 0 1 7.544 6.611c14.198 14.199 22.018 33.078 22.011 53.153.007 20.089-7.813 38.969-22.004 53.16l-36.061 36.062-11.454 33.885-.007.007c-2.072 6.103-7.057 10.621-13.329 12.085z" data-original="#fbdf63"/>
  <path fill="#ffa402" d="M386.191 381.438c-2.072 6.102-7.057 10.621-13.328 12.084a18.663 18.663 0 0 1-4.256.495c-4.836 0-9.51-1.902-13.031-5.423l-14.007-14.008c3.507 3.437 8.117 5.289 12.897 5.289 1.414 0 2.835-.163 4.256-.495 6.272-1.464 11.257-5.982 13.328-12.084l.007-.007 11.455-33.885 36.061-36.062c14.191-14.192 22.011-33.071 22.004-53.16.007-16.709-5.409-32.59-15.414-45.622a75.37 75.37 0 0 1 7.544 6.611c14.198 14.199 22.018 33.078 22.011 53.153.007 20.089-7.813 38.969-22.004 53.16l-36.061 36.062-11.454 33.885-.008.007z" data-original="#ffa402"/>
  <g fill="#ff6b81">
    <path d="M313.255 158.372c-12.404 0-22.494 10.093-22.494 22.5 0 4.142 3.357 7.5 7.5 7.5s7.5-3.358 7.5-7.5c0-4.136 3.362-7.5 7.495-7.5a7.5 7.5 0 1 0-.001-15z" data-original="#ff6b81"/>
    <path d="M313.255 126.764c-29.826 0-54.091 24.273-54.091 54.108 0 4.142 3.357 7.5 7.5 7.5s7.5-3.358 7.5-7.5c0-21.564 17.536-39.108 39.092-39.108a7.5 7.5 0 1 0-.001-15zm144.654 221.314c12.404 0 22.494-10.093 22.494-22.5 0-4.142-3.357-7.5-7.5-7.5s-7.5 3.358-7.5 7.5c0 4.136-3.362 7.5-7.495 7.5a7.5 7.5 0 1 0 .001 15z" data-original="#ff6b81"/>
    <path d="M504.5 318.078a7.5 7.5 0 0 0-7.5 7.5c0 21.564-17.536 39.108-39.092 39.108a7.5 7.5 0 0 0 0 15c29.826 0 54.091-24.273 54.091-54.108a7.498 7.498 0 0 0-7.499-7.5z" data-original="#ff6b81"/>
  </g>
  <path fill="#90abbd" d="M170.704 369.4h32.143a7.5 7.5 0 0 0 0-15h-32.143a7.5 7.5 0 0 0 0 15zm52.113 20h-52.113a7.5 7.5 0 0 0 0 15h52.113a7.5 7.5 0 0 0 0-15z" data-original="#90abbd"/>
</svg>
