<svg xmlns="http://www.w3.org/2000/svg" xml:space="preserve" style="enable-background:new 0 0 512 512" viewBox="0 0 682.667 682.667">
  <defs>
    <clipPath id="a" clipPathUnits="userSpaceOnUse">
      <path d="M0 512h512V0H0Z" data-original="#000000"/>
    </clipPath>
  </defs>
  <path fill="none" stroke="#000" stroke-linecap="round" stroke-linejoin="round" stroke-miterlimit="10" stroke-width="15" d="M0 0v151.766" data-original="#000000" style="stroke-width:15;stroke-linecap:round;stroke-linejoin:round;stroke-miterlimit:10;stroke-dasharray:none;stroke-opacity:1" transform="matrix(1.33333 0 0 -1.33333 128.342 524.614)"/>
  <g fill="none" stroke="#000" stroke-linejoin="round" stroke-miterlimit="10" stroke-width="15" clip-path="url(#a)" transform="matrix(1.33333 0 0 -1.33333 0 682.667)">
    <path stroke-linecap="round" d="M0 0v-105.706c0-25.405-20.581-46-45.968-46h-227.84c-25.387 0-45.967 20.595-45.967 46v29.632" data-original="#000000" style="stroke-width:15;stroke-linecap:round;stroke-linejoin:round;stroke-miterlimit:10;stroke-dasharray:none;stroke-opacity:1" transform="translate(416.032 159.206)"/>
    <path stroke-linecap="round" d="M0 0v21.774c0 25.405 20.58 45.999 45.968 45.999h227.84c25.386 0 45.967-20.594 45.967-45.999V-82.78" data-original="#000000" style="stroke-width:15;stroke-linecap:round;stroke-linejoin:round;stroke-miterlimit:10;stroke-dasharray:none;stroke-opacity:1" transform="translate(96.257 436.727)"/>
    <path stroke-linecap="round" d="M0 0v110.798c0 8.978-7.272 16.256-16.244 16.256h-23.728l-5.877-18.232a18.413 18.413 0 0 0-17.523-12.768h-133.073a18.413 18.413 0 0 0-17.523 12.768l-5.877 18.232h-23.728c-8.971 0-16.243-7.278-16.243-16.256V87.78" data-original="#000000" style="stroke-width:15;stroke-linecap:round;stroke-linejoin:round;stroke-miterlimit:10;stroke-dasharray:none;stroke-opacity:1" transform="translate(386.053 348.946)"/>
    <path stroke-linecap="round" d="M0 0v-217.943c0-8.978 7.272-16.256 16.243-16.256h227.329c8.972 0 16.244 7.278 16.244 16.256v50.904" data-original="#000000" style="stroke-width:15;stroke-linecap:round;stroke-linejoin:round;stroke-miterlimit:10;stroke-dasharray:none;stroke-opacity:1" transform="translate(126.236 270.199)"/>
    <path stroke-linecap="round" d="M0 0h81.295" data-original="#000000" style="stroke-width:15;stroke-linecap:round;stroke-linejoin:round;stroke-miterlimit:10;stroke-dasharray:none;stroke-opacity:1" transform="translate(215.497 474.515)"/>
    <path stroke-linecap="round" d="M0 0h81.295" data-original="#000000" style="stroke-width:15;stroke-linecap:round;stroke-linejoin:round;stroke-miterlimit:10;stroke-dasharray:none;stroke-opacity:1" transform="translate(215.497 70.778)"/>
    <path stroke-linecap="round" d="M0 0h-16.233c-8.516 0-15.418-6.908-15.418-15.429V-138.09l41.586 31.616h99.868c8.514 0 15.418 6.908 15.418 15.429v75.616C125.221-6.908 118.317 0 109.803 0H34.495" data-original="#000000" style="stroke-width:15;stroke-linecap:round;stroke-linejoin:round;stroke-miterlimit:10;stroke-dasharray:none;stroke-opacity:1" transform="translate(39.228 406.727)"/>
    <path stroke-linecap="round" d="M0 0h79.943" data-original="#000000" style="stroke-width:15;stroke-linecap:round;stroke-linejoin:round;stroke-miterlimit:10;stroke-dasharray:none;stroke-opacity:1" transform="translate(46.041 371.056)"/>
    <path stroke-linecap="round" d="M0 0h69.951" data-original="#000000" style="stroke-width:15;stroke-linecap:round;stroke-linejoin:round;stroke-miterlimit:10;stroke-dasharray:none;stroke-opacity:1" transform="translate(46.041 337.056)"/>
    <path stroke-linecap="round" d="m0 0 11.323 11.327c6.688 6.689 6.688 17.534 0 24.224-6.687 6.689-17.529 6.689-24.217 0l-11.323-11.327" data-original="#000000" style="stroke-width:15;stroke-linecap:round;stroke-linejoin:round;stroke-miterlimit:10;stroke-dasharray:none;stroke-opacity:1" transform="translate(430.698 286.98)"/>
    <path stroke-linecap="round" d="m0 0 12.026 35.542L49.323 72.85c13.213 13.207 19.815 30.525 19.815 47.852 0 17.317-6.602 34.634-19.815 47.851-26.417 26.425-69.247 26.425-95.664 0l-37.296-37.307-35.541-12.041c-7.728-2.613-10.022-12.439-4.248-18.215L-18.209-4.259C-12.445-10.025-2.622-7.731 0 0Z" data-original="#000000" style="stroke-width:15;stroke-linecap:round;stroke-linejoin:round;stroke-miterlimit:10;stroke-dasharray:none;stroke-opacity:1" transform="translate(370.812 132.087)"/>
    <path stroke-linecap="round" d="m0 0 47.129-47.143" data-original="#000000" style="stroke-width:15;stroke-linecap:round;stroke-linejoin:round;stroke-miterlimit:10;stroke-dasharray:none;stroke-opacity:1" transform="translate(335.715 214.778)"/>
    <path stroke-linecap="round" d="m0 0 23.894-23.901" data-original="#000000" style="stroke-width:15;stroke-linecap:round;stroke-linejoin:round;stroke-miterlimit:10;stroke-dasharray:none;stroke-opacity:1" transform="translate(287.175 263.333)"/>
    <path d="M0 0c-10.78-10.784-28.259-10.784-39.039 0-10.78 10.784-10.78 28.268 0 39.051" data-original="#000000" style="stroke-width:15;stroke-linecap:butt;stroke-linejoin:round;stroke-miterlimit:10;stroke-dasharray:none;stroke-opacity:1" transform="translate(319.51 160.931)"/>
    <path stroke-linecap="round" d="M0 0c0 8.284 6.714 15 14.995 15" data-original="#000000" style="stroke-width:15;stroke-linecap:round;stroke-linejoin:round;stroke-miterlimit:10;stroke-dasharray:none;stroke-opacity:1" transform="translate(298.326 336.737)"/>
    <path stroke-linecap="round" d="M0 0c0 25.741 20.861 46.608 46.594 46.608" data-original="#000000" style="stroke-width:15;stroke-linecap:round;stroke-linejoin:round;stroke-miterlimit:10;stroke-dasharray:none;stroke-opacity:1" transform="translate(266.728 336.737)"/>
    <path stroke-linecap="round" d="M0 0c8.282 0 14.996 6.715 14.996 15" data-original="#000000" style="stroke-width:15;stroke-linecap:round;stroke-linejoin:round;stroke-miterlimit:10;stroke-dasharray:none;stroke-opacity:1" transform="translate(457.982 177.031)"/>
    <path stroke-linecap="round" d="M0 0c25.733 0 46.595 20.868 46.595 46.609" data-original="#000000" style="stroke-width:15;stroke-linecap:round;stroke-linejoin:round;stroke-miterlimit:10;stroke-dasharray:none;stroke-opacity:1" transform="translate(457.982 145.422)"/>
    <path stroke-linecap="round" d="M0 0h32.143" data-original="#000000" style="stroke-width:15;stroke-linecap:round;stroke-linejoin:round;stroke-miterlimit:10;stroke-dasharray:none;stroke-opacity:1" transform="translate(171.022 150.1)"/>
    <path stroke-linecap="round" d="M0 0h52.113" data-original="#000000" style="stroke-width:15;stroke-linecap:round;stroke-linejoin:round;stroke-miterlimit:10;stroke-dasharray:none;stroke-opacity:1" transform="translate(171.022 115.1)"/>
  </g>
</svg>
