<svg xmlns="http://www.w3.org/2000/svg" xml:space="preserve" viewBox="0 0 512 512">
  <path fill="#399349" d="M307.9 307c0-62 59-146.7 71.1-68.1 0 0 26.2-78.6 73.9-58s-6 80.5-6 80.5 59.6-8.4 25.8 45.6z" data-original="#399349"/>
  <path fill="#f6c9aa" d="M256 217c53.3 0 61.1 90 61.1 90h-30" data-original="#f6c9aa"/>
  <path fill="#d84861" d="M229.8 132.3c35.1-35.1 35.4-91.9 0-127.3L102.5 132.3c35.4 35.3 92.2 35.1 127.3 0z" data-original="#d84861"/>
  <path fill="#9cd3fc" d="M5 307c0 66.4 40.1 174 156.3 200h189.4C466.9 481 507 373.4 507 307z" data-original="#9cd3fc"/>
  <path fill="#69bdfb" d="M436 307c0 66.4-40.1 174-156.3 200h71C466.9 481 507 373.4 507 307z" data-original="#69bdfb"/>
  <path fill="#ffb234" d="M447 105c20.5 0 30 20.7 30 50 0-29.3 9.5-50 30-50-17.6 0-30-15.9-30-50 0 34.1-12.4 50-30 50zM35 55c20.5 0 30 20.7 30 50 0-29.3 9.5-50 30-50-17.6 0-30-15.9-30-50 0 34.1-12.4 50-30 50z" data-original="#ffb234"/>
  <path fill="#399349" d="M204.1 307c0-62-59-146.7-71.1-68.1 0 0-26.2-78.6-73.9-58s6 80.5 6 80.5S5.4 253 39.2 307z" data-original="#399349"/>
  <path fill="#2b6e38" d="m433.487 206.034 8.76 4.83-54.434 98.725-8.76-4.83z" data-original="#2b6e38"/>
  <path fill="#fae7d9" d="M185 307s17.7-90 71-90 31 90 31 90z" data-original="#fae7d9"/>
  <path fill="#ffc96f" d="M214 307s8.2-41.8 33-41.8 14.4 41.8 14.4 41.8zm-29 0c0-33.1-26.9-60-60-60s-60 26.9-60 60h20c0-22.1 17.9-40 40-40s40 17.9 40 40z" data-original="#ffc96f"/>
  <path fill="#c22945" d="M215.7 118.1c27.3-27.3 27.6-71.4 0-99l-28.3 28.3c12 12 11.7 30.7 0 42.4s-30.7 11.7-42.4 0l-28.3 28.3c27.3 27.4 71.6 27.4 99 0z" data-original="#c22945"/>
  <path fill="#2b6e38" d="M372 280c49.5 0 90.5-35.9 98.6-83.1-2.7-6.4-8.2-11.9-17.6-16-47.7-20.6-73.9 58-73.9 58-9.4-60.5-46.5-24.2-63 23.9C332 273.7 351.3 280 372 280z" data-original="#2b6e38"/>
  <circle cx="372" cy="180" r="75" fill="#399349" data-original="#399349"/>
  <path fill="#2b6e38" d="M362 151.2v23.1l-20 11.5c-4.4 2.5-10-.6-10-5.7v-.1c0-14.8 8-27.7 20-34.6 4.4-2.6 10 .6 10 5.8zm50 28.8v.1c0 5.1-5.6 8.2-10 5.7l-20-11.5v-23.1c0-5.1 5.6-8.4 10-5.8 12 6.9 20 19.8 20 34.6zm-20 23.1c4.4 2.5 4.5 8.9.1 11.5-5.9 3.4-12.8 5.4-20.1 5.4s-14.2-2-20.1-5.4c-4.4-2.6-4.3-9 .1-11.5l20-11.5z" data-original="#2b6e38"/>
  <path fill="#69bdfb" d="M9 342h495v10H9z" data-original="#69bdfb"/>
</svg>
