<svg xmlns="http://www.w3.org/2000/svg" xml:space="preserve" viewBox="0 0 512 512">
  <path fill="#d9b1ee" d="M165.025 323.49H31.343c-8.534 0-15.453-6.918-15.453-15.453v-39.823c0-20.645 16.736-37.381 37.381-37.381h89.826c20.645 0 37.381 16.736 37.381 37.381v39.823c0 8.535-6.918 15.453-15.453 15.453z" data-original="#d9b1ee"/>
  <path fill="#cb97e7" d="M143.906 230.854v52.974c0 5.69-4.612 10.302-10.302 10.302H15.891v13.907c0 8.534 6.918 15.453 15.453 15.453h133.682c8.534 0 15.453-6.918 15.453-15.453v-39.823c-.001-20.373-16.303-36.928-36.573-37.36z" data-original="#cb97e7"/>
  <circle cx="98.184" cy="188.328" r="46.328" fill="#ffdfcf" data-original="#ffdfcf"/>
  <path fill="#d9b1ee" d="M480.657 323.49H346.975c-8.534 0-15.453-6.918-15.453-15.453v-39.823c0-20.645 16.736-37.381 37.381-37.381h89.826c20.645 0 37.381 16.736 37.381 37.381v39.823c-.001 8.535-6.919 15.453-15.453 15.453z" data-original="#d9b1ee"/>
  <path fill="#cb97e7" d="M459.538 230.854v52.974c0 5.69-4.612 10.302-10.302 10.302H331.522v13.907c0 8.534 6.918 15.453 15.453 15.453h133.682c8.534 0 15.453-6.918 15.453-15.453v-39.823c-.001-20.373-16.302-36.928-36.572-37.36z" data-original="#cb97e7"/>
  <circle cx="413.816" cy="188.328" r="46.328" fill="#ffdfcf" data-original="#ffdfcf"/>
  <path fill="#bb5d4c" d="M304.518 194.576a31.888 31.888 0 0 1-26.049-13.539 4.385 4.385 0 0 0-3.582-1.864 4.384 4.384 0 0 0-3.582 1.864 31.888 31.888 0 0 1-26.049 13.539h-48.04l-1.576 1.097v17.966C195.639 246.976 222.664 274 256 274s60.361-27.024 60.361-60.361v-17.966l-1.167-1.097z" data-original="#bb5d4c"/>
  <path fill="#b3dafe" d="M363.834 369.866v-51.502c0-27.052-21.93-48.982-48.982-48.982H197.148c-27.052 0-48.982 21.93-48.982 48.982v51.502z" data-original="#b3dafe"/>
  <path fill="#8ac9fe" d="M363.834 369.866v-51.502c0-22.764-15.53-41.897-36.571-47.392v98.893h36.571z" data-original="#8ac9fe"/>
  <path fill="#d9b1ee" d="M245.475 310.512h20.883l1.581-1.399 11.108-39.73h-46.094l11.057 39.73z" data-original="#d9b1ee"/>
  <path fill="#cb97e7" d="m278.876 369.866-10.937-60.753H244.01l-10.899 60.753z" data-original="#cb97e7"/>
  <path fill="#685e68" d="M316.361 195.673h-11.843c-11.142 0-20.99-5.536-26.947-14.006a3.277 3.277 0 0 0-5.369 0c-5.957 8.47-15.805 14.006-26.947 14.006h-49.616v-7.682c0-31.518 25.55-57.068 57.068-57.068h6.585c31.518 0 57.068 25.55 57.068 57.068v7.682z" data-original="#685e68"/>
  <path fill="#fedf30" d="M387.986 512H124.014c-17.069 0-30.905-13.837-30.905-30.905v-81.353c0-17.069 13.837-30.905 30.905-30.905h263.971c17.069 0 30.905 13.837 30.905 30.905v81.353c.001 17.068-13.836 30.905-30.904 30.905z" data-original="#fedf30"/>
  <path fill="#fed402" d="M387.986 368.836h-5.666v96.259c0 5.69-4.612 10.302-10.302 10.302H93.109v5.697c0 17.069 13.837 30.905 30.905 30.905h263.971c17.069 0 30.905-13.837 30.905-30.905v-81.353c.001-17.068-13.836-30.905-30.904-30.905z" data-original="#fed402"/>
  <path fill="#fff" d="M231.22 399.1a7.5 7.5 0 0 0-7.5 7.5v67.636a7.5 7.5 0 0 0 15 0V406.6a7.5 7.5 0 0 0-7.5-7.5zm-34.407 0a7.5 7.5 0 0 0-7.5 7.5v25.158h-31.805V406.6a7.5 7.5 0 0 0-15 0v67.636a7.5 7.5 0 0 0 15 0v-27.478h31.805v27.478a7.5 7.5 0 0 0 15 0V406.6a7.5 7.5 0 0 0-7.5-7.5zm165.179 67.328h-20.739v-18.51h18.657c4.143 0 7.5-3.358 7.5-7.5s-3.357-7.5-7.5-7.5h-18.657v-18.509h20.739c4.143 0 7.5-3.358 7.5-7.5s-3.357-7.5-7.5-7.5h-28.239a7.5 7.5 0 0 0-7.5 7.5v67.019a7.5 7.5 0 0 0 7.5 7.5h28.239c4.143 0 7.5-3.358 7.5-7.5s-3.357-7.5-7.5-7.5zm-71.896-17.846c11.5-2.609 20.088-12.557 20.088-24.404 0-13.828-11.696-25.078-26.072-25.078h-17.974l-.011.001-.011-.001a7.5 7.5 0 0 0-7.5 7.5v67.636c0 4.142 3.357 7.5 7.5 7.5s7.5-3.358 7.5-7.5v-21.675l23.438 26.63a7.48 7.48 0 0 0 5.633 2.545 7.5 7.5 0 0 0 5.627-12.455zm-16.375-14.29-.059-20.192h10.45c6.002 0 11.072 4.615 11.072 10.078s-5.07 10.078-11.072 10.078c-2.408 0-6.644.018-10.391.036z" data-original="#ffffff"/>
  <path fill="#86e8d0" d="M322.316 66.316c0-37.668-31.405-68.001-69.46-66.244-33.807 1.561-61.313 28.886-63.08 62.683-1.719 32.874 20.52 60.847 50.81 68.058 2.746.654 5.182 2.232 6.8 4.545l5.842 8.352c1.346 1.925 4.196 1.925 5.543 0l5.846-8.359c1.608-2.299 4.025-3.88 6.755-4.528 29.211-6.935 50.944-33.175 50.944-64.507z" data-original="#86e8d0"/>
  <path fill="#fff" d="M249.788 93.6a7.5 7.5 0 0 1-5.641-2.558l-19.878-22.693a7.5 7.5 0 0 1 .7-10.583 7.499 7.499 0 0 1 10.583.7l14.035 16.022L276.28 41.79a7.5 7.5 0 1 1 11.619 9.486l-32.302 39.567a7.504 7.504 0 0 1-5.679 2.756l-.13.001z" data-original="#ffffff"/>
  <path fill="#a44f3e" d="M315.194 194.576h-10.675c-9.62 0-18.707-4.378-24.729-11.803v24.577c0 30.434-22.527 55.594-51.814 59.747A60.081 60.081 0 0 0 256.001 274c33.336 0 60.361-27.024 60.361-60.361v-17.966z" data-original="#a44f3e"/>
  <path fill="#554e56" d="M260.057 130.942c12.08 10.464 19.732 25.904 19.732 43.14v10.39c6.033 6.864 14.872 11.201 24.729 11.201h11.843v-7.682c0-31.261-25.14-56.638-56.304-57.049z" data-original="#554e56"/>
  <path fill="#ffcebf" d="M98.184 142c-.562 0-1.119.023-1.676.042 11.511 8.429 18.991 22.036 18.991 37.396 0 25.024-19.843 45.402-44.652 46.286a46.11 46.11 0 0 0 27.337 8.932c25.586 0 46.328-20.742 46.328-46.328S123.771 142 98.184 142zm315.632 0c-.562 0-1.119.023-1.676.042 11.511 8.429 18.991 22.036 18.991 37.396 0 25.024-19.844 45.402-44.652 46.286a46.107 46.107 0 0 0 27.337 8.932c25.587 0 46.328-20.742 46.328-46.328S439.402 142 413.816 142z" data-original="#ffcebf"/>
  <path fill="#5de1c4" d="M265.903.752c27.905 23.296 31.873 64.777 8.778 92.945-15.358 18.732-38.831 26.863-61.162 23.513 7.731 6.456 16.946 11.194 27.069 13.604 2.746.654 5.182 2.232 6.8 4.545l5.842 8.352c1.346 1.925 4.196 1.925 5.543 0l5.846-8.359c1.608-2.299 4.025-3.88 6.755-4.528 29.21-6.934 50.944-33.175 50.944-64.506-.001-33.26-24.489-60.784-56.415-65.566z" data-original="#5de1c4"/>
</svg>
