<svg xmlns="http://www.w3.org/2000/svg" xml:space="preserve" viewBox="0 0 64 64">
  <path fill="#ffc680" d="m41.75 63 .86-6.86L44.32 51l4.21-5.61c.52-.7 1.5-.87 2.23-.38.72.48.94 1.43.52 2.18l-2.67 4.67 3.43-1.71 2.57-2.57 3.93-7.85c.22-.44.67-.72 1.17-.72.88 0 1.5.85 1.25 1.69l-2.91 9.46-3.43 5.14-4.38 2.92c-.48.32-.76.85-.76 1.43v3.37h-7.71zm-19.5 0-.86-6.86L19.68 51l-4.21-5.61c-.52-.7-1.5-.87-2.23-.38-.72.48-.94 1.43-.52 2.18l2.67 4.67-3.43-1.71-2.57-2.57-3.93-7.85c-.22-.44-.67-.72-1.17-.72-.88 0-1.5.85-1.25 1.69l2.91 9.46 3.43 5.14 4.38 2.92c.48.32.76.85.76 1.43v3.37h7.71z" data-original="#ffc680"/>
  <circle cx="32" cy="22" r="5" fill="#f2b261" data-original="#f2b261"/>
  <path fill="#2970cc" d="M40 42V32c0-2.76-2.24-5-5-5h-6c-2.76 0-5 2.24-5 5v10h16z" data-original="#2970cc"/>
  <circle cx="46" cy="25.5" r="3.5" fill="#f2b261" data-original="#f2b261"/>
  <path fill="#2462b3" d="M52 40v-7c0-2.21-1.79-4-4-4h-4c-2.21 0-4 1.79-4 4v7h12z" data-original="#2462b3"/>
  <circle cx="18" cy="25.5" r="3.5" fill="#f2b261" data-original="#f2b261"/>
  <path fill="#2462b3" d="M24 40v-7c0-2.21-1.79-4-4-4h-4c-2.21 0-4 1.79-4 4v7h12z" data-original="#2462b3"/>
  <path fill="#f2f2f2" d="m32 27-2 7 2 3 2-3z" data-original="#f2f2f2"/>
  <path fill="#e65c62" d="m32 2 1.55 3.13 3.45.5-2.5 2.44.59 3.44L32 9.89l-3.09 1.62.59-3.44L27 5.63l3.45-.5z" data-original="#e65c62"/>
</svg>
