<svg xmlns="http://www.w3.org/2000/svg" xml:space="preserve" style="enable-background:new 0 0 512 512" viewBox="0 0 512 512">
  <path fill="#fd8087" d="M183.154 497.415V299.364h145.691v198.051c0 10.459-10.694 17.511-20.308 13.391l-44.339-19.002a20.81 20.81 0 0 0-16.397 0l-44.339 19.002c-9.613 4.12-20.308-2.931-20.308-13.391z" data-original="#fd8087"/>
  <path fill="#fe646f" d="M183.154 391.576c2.053.292 4.147.448 6.275.448a43.616 43.616 0 0 0 12.223-1.74c8.147 8.456 19.537 13.49 31.66 13.489A43.687 43.687 0 0 0 256 397.448a43.67 43.67 0 0 0 22.691 6.325c12.122-.001 23.51-5.034 31.657-13.49a43.604 43.604 0 0 0 12.227 1.741c2.127 0 4.22-.157 6.271-.449v-92.211H183.154z" data-original="#fe646f"/>
  <path fill="#fea713" d="M267.361 5.355c6.926-8.389 20.243-6.636 24.761 3.26 3.844 8.419 14.408 11.25 21.947 5.881 8.861-6.311 21.271-1.171 23.074 9.557 1.534 9.127 11.006 14.596 19.677 11.361 10.192-3.803 20.849 4.375 19.814 15.204-.881 9.213 6.853 16.947 16.066 16.066 10.829-1.035 19.006 9.622 15.204 19.814-3.235 8.671 2.233 18.143 11.361 19.677 10.728 1.803 15.868 14.213 9.557 23.074-5.369 7.539-2.539 18.103 5.881 21.947 9.896 4.518 11.649 17.836 3.26 24.761-7.137 5.892-7.137 16.829 0 22.721 8.389 6.926 6.636 20.243-3.26 24.761-8.419 3.844-11.25 14.408-5.881 21.947 6.311 8.861 1.171 21.271-9.557 23.074-9.127 1.534-14.596 11.006-11.361 19.677 3.803 10.192-4.375 20.849-15.204 19.814-9.213-.881-16.947 6.853-16.066 16.066 1.035 10.829-9.622 19.006-19.814 15.204-8.671-3.235-18.143 2.233-19.677 11.361-1.803 10.728-14.213 15.868-23.074 9.557-7.539-5.369-18.103-2.539-21.947 5.881-4.518 9.896-17.836 11.649-24.761 3.26-5.892-7.137-16.829-7.137-22.721 0-6.926 8.389-20.243 6.636-24.761-3.26-3.844-8.419-14.408-11.25-21.947-5.881-8.861 6.311-21.271 1.171-23.074-9.557-1.534-9.127-11.006-14.596-19.677-11.361-10.192 3.803-20.849-4.375-19.814-15.204.881-9.213-6.853-16.947-16.066-16.066-10.829 1.035-19.006-9.622-15.204-19.814 3.235-8.671-2.233-18.143-11.361-19.677-10.728-1.803-15.868-14.213-9.557-23.074 5.369-7.539 2.539-18.103-5.881-21.947-9.896-4.518-11.649-17.836-3.26-24.761 7.137-5.892 7.137-16.829 0-22.721-8.389-6.926-6.636-20.243 3.26-24.761 8.419-3.844 11.25-14.408 5.881-21.947-6.311-8.861-1.171-21.271 9.557-23.074 9.127-1.534 14.596-11.006 11.361-19.677-3.803-10.192 4.375-20.849 15.204-19.814 9.213.881 16.947-6.853 16.066-16.066-1.035-10.829 9.622-19.006 19.814-15.204 8.671 3.235 18.143-2.233 19.677-11.361 1.803-10.728 14.213-15.868 23.074-9.557 7.539 5.369 18.103 2.539 21.947-5.881 4.518-9.896 17.836-11.649 24.761-3.26 5.892 7.138 16.828 7.138 22.721 0z" data-original="#fea713"/>
  <path fill="#fe9901" d="M437.962 198.678c-7.137-5.892-7.137-16.829 0-22.721 8.389-6.926 6.636-20.243-3.26-24.761-8.419-3.844-11.25-14.408-5.881-21.947 6.311-8.861 1.171-21.271-9.558-23.074-9.127-1.534-14.596-11.005-11.361-19.677 3.802-10.192-4.374-20.849-15.204-19.814-9.213.881-16.947-6.853-16.066-16.066 1.023-10.7-9.37-18.803-19.45-15.326 20.423 30.173 32.353 66.564 32.353 105.743 0 104.318-84.566 188.884-188.884 188.884-23.199 0-45.417-4.192-65.949-11.843.602 1.852.863 3.855.664 5.942-1.035 10.829 9.622 19.006 19.814 15.204 8.671-3.235 18.143 2.233 19.677 11.36 1.803 10.728 14.213 15.868 23.074 9.558 7.539-5.369 18.103-2.539 21.947 5.881 4.518 9.896 17.836 11.649 24.761 3.26 5.892-7.137 16.829-7.137 22.721 0 6.926 8.389 20.243 6.636 24.761-3.26 3.844-8.419 14.408-11.25 21.947-5.881 8.861 6.311 21.271 1.17 23.074-9.558 1.534-9.127 11.006-14.596 19.677-11.36 10.192 3.802 20.849-4.375 19.814-15.204-.881-9.213 6.853-16.947 16.066-16.066 10.829 1.035 19.006-9.622 15.204-19.814-3.235-8.672 2.233-18.143 11.361-19.677 10.728-1.803 15.868-14.213 9.558-23.074-5.369-7.539-2.539-18.103 5.881-21.947 9.895-4.519 11.648-17.837 3.259-24.762z" data-original="#fe9901"/>
  <circle cx="256" cy="187.317" r="144.651" fill="#dff6fd" data-original="#dff6fd"/>
  <path fill="#ffe177" d="M464.537 299.359H47.463c-5.523 0-10-4.477-10-10v-98.634c0-5.523 4.477-10 10-10h417.074c5.523 0 10 4.477 10 10v98.634c0 5.523-4.477 10-10 10z" data-original="#ffe177"/>
  <path fill="#ffd15b" d="M358.525 180.725c-12.633 38.536-34.266 79.261-63.895 118.634h169.907c5.523 0 10-4.477 10-10v-98.634c0-5.523-4.477-10-10-10z" data-original="#ffd15b"/>
  <path fill="#fea713" d="M206.235 92.055h-27.586c-4.142 0-7.5 3.357-7.5 7.5s3.358 7.5 7.5 7.5h6.237v42.451c0 4.143 3.358 7.5 7.5 7.5s7.5-3.357 7.5-7.5v-42.451h6.349c4.142 0 7.5-3.357 7.5-7.5s-3.358-7.5-7.5-7.5zm46.916 0c-17.907 0-32.476 14.568-32.476 32.476s14.569 32.476 32.476 32.476 32.475-14.568 32.475-32.476-14.568-32.476-32.475-32.476zm0 49.951c-9.636 0-17.476-7.84-17.476-17.476s7.84-17.476 17.476-17.476 17.475 7.84 17.475 17.476-7.839 17.476-17.475 17.476zm66.484-49.951h-13.273a7.5 7.5 0 0 0-7.5 7.495l-.017 49.956c0 4.143 3.357 7.5 7.5 7.5s7.5-3.357 7.5-7.5v-16.47c2.216-.01 4.416-.018 5.79-.018 11.699 0 21.217-9.188 21.217-20.481s-9.518-20.482-21.217-20.482zm0 25.963c-1.374 0-3.569.008-5.785.018l.007-10.98h5.778c3.37 0 6.217 2.51 6.217 5.481s-2.847 5.481-6.217 5.481z" data-original="#fea713"/>
  <path fill="#fd8087" d="M150.597 235.6a20.282 20.282 0 0 0 3.074-10.725c0-11.266-9.165-20.431-20.431-20.431h-16.323a7.5 7.5 0 0 0-7.5 7.5v56.195a7.503 7.503 0 0 0 7.5 7.5h.033c.001 0 15.005-.066 19.141-.066 12.476 0 22.626-10.15 22.626-22.626.001-6.96-3.16-13.193-8.12-17.347zm-17.356-16.156c2.995 0 5.431 2.437 5.431 5.431s-2.436 5.431-5.431 5.431c-1.208 0-8.823.016-8.823.016v-10.877h8.823zm2.851 41.129c-2.159 0-7.268.018-11.674.035v-15.276c.943-.004 11.674-.011 11.674-.011 4.205 0 7.626 3.421 7.626 7.626s-3.421 7.626-7.626 7.626zm79.349-34.024c0-12.188-10.287-22.104-22.931-22.104h-14.933a7.5 7.5 0 0 0-7.5 7.495l-.018 56.2c0 4.143 3.358 7.5 7.5 7.5s7.5-3.357 7.5-7.5v-14.646l17.252 19.602a7.478 7.478 0 0 0 5.633 2.545 7.5 7.5 0 0 0 5.627-12.455l-13.796-15.675c9.093-2.938 15.666-11.221 15.666-20.962zm-22.931 7.104c-1.74 0-4.649.012-7.446.024l.009-14.233h7.438c4.299 0 7.931 3.254 7.931 7.104s-3.632 7.105-7.932 7.105zm72.107-23.568a8.743 8.743 0 0 0-8.194-5.641h-.012a8.746 8.746 0 0 0-8.176 5.623l-21.101 55.403a7.5 7.5 0 0 0 4.339 9.678 7.496 7.496 0 0 0 9.678-4.34l3.415-8.967h23.55l3.376 8.946a7.503 7.503 0 0 0 7.018 4.854 7.499 7.499 0 0 0 7.015-10.15zm-14.337 36.757 6.116-16.059 6.06 16.059zm135.867-42.398h-15.916a7.499 7.499 0 0 0-7.5 7.5v56.195a7.5 7.5 0 0 0 7.5 7.5h.028c.485-.002 11.946-.045 16.483-.124 17.149-.3 29.597-15.219 29.597-35.474.001-21.291-12.133-35.597-30.192-35.597zm.334 56.074c-2.007.035-5.508.063-8.75.084v-41.157h8.416c14.097 0 15.192 15.766 15.192 20.598.001 13.964-7.462 20.346-14.858 20.475zm-42.687-56.074a7.499 7.499 0 0 0-7.5 7.5v32.196l-25.261-36.467a7.5 7.5 0 0 0-13.665 4.27v56.195c0 4.143 3.357 7.5 7.5 7.5s7.5-3.357 7.5-7.5v-32.196l25.261 36.467a7.497 7.497 0 0 0 8.402 2.887 7.5 7.5 0 0 0 5.263-7.158v-56.195a7.5 7.5 0 0 0-7.5-7.499z" data-original="#fd8087"/>
</svg>
