<svg xmlns="http://www.w3.org/2000/svg" xml:space="preserve" style="enable-background:new 0 0 512 512" viewBox="0 0 512 512">
  <g fill="#a7c7d3">
    <path d="M404.664 285.445h-61.2c-10 0-18.1 8.106-18.1 18.102v73.226c0-9.996-8.106-18.101-18.102-18.101h-61.203c-10 0-18.102 8.101-18.102 18.101v48.278c0-9.996-8.105-18.102-18.102-18.102h-61.203c-10 0-18.101 8.106-18.101 18.102v44.941c0-9.996-8.106-18.101-18.106-18.101H51.246c-9.996 0-18.101 8.101-18.101 18.101v34.363H422.77V303.547c0-9.996-8.106-18.102-18.106-18.102zm0 0" data-original="#a7c7d3"/>
    <path d="M351.805 293.09a7.644 7.644 0 0 1-7.649-7.645V7.645A7.644 7.644 0 0 1 351.805 0a7.644 7.644 0 0 1 7.644 7.645v277.8a7.646 7.646 0 0 1-7.644 7.645zM130.55 504.355H33.146v-34.363c0-9.996 8.105-18.101 18.101-18.101h61.203c9.996 0 18.102 8.101 18.102 18.101zm0 0" data-original="#a7c7d3"/>
  </g>
  <path fill="#89b4c9" d="M227.957 504.355h-97.406v-79.304c0-9.996 8.105-18.102 18.101-18.102h61.203c9.997 0 18.102 8.106 18.102 18.102zm0 0" data-original="#89b4c9"/>
  <path fill="#6c96b3" d="M325.363 504.355h-97.406V376.773c0-9.996 8.102-18.101 18.102-18.101h61.203c9.996 0 18.101 8.101 18.101 18.101zm0 0" data-original="#6c96b3"/>
  <path fill="#618aaa" d="M422.77 504.355h-97.407V303.547c0-9.996 8.102-18.102 18.102-18.102h61.2c10 0 18.105 8.106 18.105 18.102zm0 0" data-original="#618aaa"/>
  <path fill="#2f5066" d="M449.766 512H7.645A7.644 7.644 0 0 1 0 504.355a7.644 7.644 0 0 1 7.645-7.644h442.12a7.644 7.644 0 0 1 7.645 7.644 7.644 7.644 0 0 1-7.644 7.645zm0 0" data-original="#2f5066"/>
  <path fill="#fdb659" d="M351.805 80.328h97.972c3.035 0 4.453-3.758 2.176-5.762l-25.45-22.414a3.287 3.287 0 0 1 0-4.941l25.45-22.41c2.277-2.008.86-5.766-2.176-5.766h-97.972zm0 0" data-original="#fdb659"/>
  <path fill="#83d9ff" d="m359.605 109.012-106.132 57.644c-9.47 5.145-12.059 14.184-15.364 25.828l-21.105 74.645 27.875 9.574 23.848-30.773 20.074-60.692 53.41-32.453c14.926-9.066 22.023-26.933 17.394-43.773zm0 0" data-original="#83d9ff"/>
  <path fill="#5fc9ed" d="m359.605 109.012-12.246 6.652c-2.062 10.54-8.43 20.059-18.058 25.91l-48.668 29.57a15.107 15.107 0 0 0-6.492 8.157l-6.95 21.012a78.77 78.77 0 0 1-44.91 48.148l-5.277 18.668 51.723-21.195 20.074-60.692 53.41-32.457c14.926-9.066 22.023-26.933 17.394-43.773zm0 0" data-original="#5fc9ed"/>
  <path fill="#38627c" d="m268.727 245.93 30.562 36.125c5.066 6.707 9.473 11.422 8.559 18.8l-7.149 57.786h-18.652l-4.875-49.676a8.296 8.296 0 0 0-4.973-6.809l-55.195-35.027zm0 0" data-original="#38627c"/>
  <path fill="#4f7693" d="m217.004 267.129-2.98 54.77c-.196 4.542.44 7.613-1.337 10.992l-35.195 74.058h19.785l52.918-70.304c3.094-3.602 3.453-8.493 4.496-12.993l14.032-77.722zm0 0" data-original="#4f7693"/>
  <path fill="#fecbaa" d="m264.934 120.836 8.68 16.945c4.077 7.961.929 17.727-7.036 21.805l-6.707 3.434c-7.965 4.078-17.726.93-21.805-7.036l-8.68-16.945c-4.077-7.965-.929-17.726 7.036-21.805l6.707-3.433c7.96-4.078 17.723-.93 21.805 7.035zm0 0" data-original="#fecbaa"/>
</svg>
