<svg xmlns="http://www.w3.org/2000/svg" xml:space="preserve" style="enable-background:new 0 0 512 512" viewBox="0 0 511.342 511.342">
  <path fill="#373c41" d="M233.713 464.589c-13.496-1.157-23.498-13.036-22.341-26.531l8.88-103.575-57.027-42.287c-11.361-7.375-14.592-22.564-7.217-33.925s22.564-14.591 33.925-7.217l69.365 50.297a24.528 24.528 0 0 1 11.082 22.667l-10.137 118.231c-1.154 13.47-13.01 23.497-26.53 22.34z" data-original="#373c41"/>
  <path fill="#50555a" d="M126.323 511.342c-13.457 0-24.366-10.909-24.366-24.366v-194.78c0-13.457 10.909-24.366 24.366-24.366s24.366 10.909 24.366 24.366v194.779c0 13.457-10.909 24.367-24.366 24.367z" data-original="#50555a"/>
  <path fill="#00558c" d="m155.819 292.196 3.795-89.118-1.928-53.864-30.93-52.846H100.66c-26.566 0-48.286 21.449-48.418 47.813v135.057l20.305 9.051 20.305-9.051V144.356c.037-4.002 3.606-7.378 7.808-7.378h1.298v155.218z" data-original="#00558c"/>
  <path fill="#003f73" d="m321.098 168.127-20.241-10.729-41.266 24.054v-37.271c-.132-26.365-21.853-47.813-48.418-47.813h-26.622l-28.732 27.818v168.01h17.682c19.893 0 36.019-16.126 36.019-36.019V136.979h1.653c4.2 0 7.767 3.371 7.808 7.37v71.944c0 6.586 2.941 12.939 8.247 16.839a20.307 20.307 0 0 0 22.283 1.203l72.128-42.044z" data-original="#003f73"/>
  <g fill="#ffb69e">
    <path d="M332.875 162.239c-5.648-9.688-18.08-12.965-27.768-7.317l-4.249 2.477 20.782 34.892 3.917-2.283c9.689-5.648 12.965-18.081 7.318-27.769z" data-original="#ffb69e"/>
    <circle cx="154.741" cy="42.087" r="42.087" data-original="#ffb69e"/>
    <path d="M52.241 279.239v4.218c0 11.214 9.091 20.305 20.305 20.305s20.305-9.091 20.305-20.305v-4.218z" data-original="#ffb69e"/>
  </g>
  <path fill="#fff" d="M126.755 96.368s6.545 39.103 21.071 50.155h15.654c14.525-11.052 21.071-50.155 21.071-50.155z" data-original="#ffffff"/>
  <path fill="#373c41" d="M160.934 116.749h-10.562a3.167 3.167 0 0 1-3.115-2.592l-2.593-14.046a3.168 3.168 0 0 1 3.115-3.743h15.749a3.168 3.168 0 0 1 3.115 3.743l-2.593 14.046a3.17 3.17 0 0 1-3.116 2.592zm2.172 5.388a2.597 2.597 0 0 0-2.548-2.096h-9.81a2.597 2.597 0 0 0-2.548 2.096l-2.558 13.003a2.6 2.6 0 0 0 .007 1.036l2.178 10.345c2.391 1.819 4.997 2.879 7.826 2.879s5.436-1.06 7.826-2.879l2.178-10.345a2.6 2.6 0 0 0 .007-1.036z" data-original="#373c41"/>
  <path fill="#e64937" d="M420.914 171.102h-94.453l9-76.374h85.453z" data-original="#e64937"/>
  <path fill="#e64937" d="M459.101 189.777h-76.374v-76.374h76.374l-16.935 38.187z" data-original="#e64937"/>
  <path fill="#cc4131" d="M382.727 171.102v18.675l38.187-18.675z" data-original="#cc4131"/>
  <path fill="#c8e6eb" d="M286.242 455.838c-.452 0-.909-.03-1.37-.093-5.472-.75-9.3-5.793-8.55-11.265l49.8-363.576c.75-5.472 5.794-9.3 11.265-8.551 5.472.75 9.3 5.793 8.551 11.265l-49.801 363.576c-.686 5.012-4.975 8.644-9.895 8.644z" data-original="#c8e6eb"/>
  <path fill="#dcbe82" d="m397.558 493.259-95.566-71.5a22.973 22.973 0 0 0-27.525 0l-95.566 71.5c-7.732 5.785-3.641 18.083 6.016 18.083h206.625c9.657 0 13.748-12.298 6.016-18.083z" data-original="#dcbe82"/>
</svg>
