<svg xmlns="http://www.w3.org/2000/svg" xml:space="preserve" fill-rule="evenodd" viewBox="0 0 510 510">
  <path fill="#fe646f" d="m333.655 330.702-77.511 31.479 61.044 131.112c.499 1.039 1.414 1.663 2.536 1.705 1.123.041 2.121-.499 2.662-1.456l22.788-39.13 44.577 7.776c1.123.208 2.162-.207 2.828-1.122.706-.874.831-1.996.332-3.036z" data-original="#fe646f"/>
  <path fill="#fd4755" d="m315.119 488.849 20.977-36.02 9.078 1.583-22.788 39.13c-.541.957-1.539 1.497-2.662 1.456-1.122-.042-2.037-.666-2.536-1.705zm67.547-27.896c.629-.856.723-1.928.245-2.923l-57.667-123.912 8.411-3.416 59.256 127.328c.499 1.04.374 2.162-.332 3.036-.666.915-1.705 1.33-2.828 1.122z" data-original="#fd4755"/>
  <path fill="#fe646f" d="m176.345 330.702 77.511 31.479-61.044 131.112c-.457 1.039-1.414 1.663-2.536 1.705-1.123.041-2.121-.499-2.662-1.456l-22.746-39.13-44.619 7.776c-1.123.208-2.162-.207-2.828-1.122-.706-.874-.831-1.996-.332-3.036z" data-original="#fe646f"/>
  <path fill="#fd4755" d="m127.335 460.954-7.086 1.234c-1.123.208-2.162-.207-2.828-1.122-.706-.874-.831-1.996-.332-3.036l59.256-127.328 8.411 3.416-57.667 123.912c-.478.996-.384 2.068.246 2.924zm67.548 27.89-2.071 4.449c-.457 1.039-1.414 1.663-2.536 1.705-1.123.041-2.121-.499-2.662-1.456l-22.746-39.13 9.08-1.582z" data-original="#fd4755"/>
  <path fill="#ffe177" d="m274.814 114.136 19.919 14.928c5.447 4.075 11.144 6.155 17.964 6.529l24.825 1.372c14.845.832 26.946 10.978 30.314 25.449l5.697 24.243c1.539 6.612 4.575 11.893 9.565 16.55l18.13 17.008c10.853 10.188 13.598 25.74 6.861 39.005l-11.227 22.206c-3.036 6.071-4.117 12.059-3.285 18.837l2.952 24.7c1.746 14.763-6.113 28.443-19.835 34.307l-22.83 9.772c-6.279 2.661-10.936 6.612-14.679 12.308l-13.597 20.792c-8.151 12.475-22.954 17.839-37.217 13.556l-23.828-7.194c-6.487-1.996-12.599-1.996-19.086 0l-23.828 7.194c-14.263 4.283-29.066-1.081-37.217-13.556l-13.597-20.792c-3.743-5.696-8.4-9.647-14.679-12.308l-22.83-9.772c-13.681-5.864-21.581-19.544-19.835-34.307l2.952-24.7c.832-6.778-.249-12.766-3.285-18.837l-11.227-22.206c-6.737-13.265-3.992-28.817 6.861-39.005l18.13-17.008c4.99-4.657 8.026-9.938 9.565-16.55l5.697-24.243c3.368-14.471 15.469-24.617 30.314-25.449l24.825-1.372c6.82-.374 12.558-2.454 17.964-6.529l19.919-14.928c11.934-8.899 27.694-8.899 39.628 0z" data-original="#ffe177"/>
  <path fill="#ffd064" d="M250 107.851c8.526-1.334 17.407.761 24.814 6.285l19.919 14.928c5.447 4.075 11.144 6.155 17.964 6.529l24.825 1.372c14.845.832 26.946 10.978 30.314 25.449l5.697 24.243c1.539 6.612 4.575 11.893 9.565 16.55l18.13 17.008c10.853 10.188 13.598 25.74 6.861 39.005l-11.227 22.206c-3.036 6.071-4.117 12.059-3.285 18.837l2.952 24.7c1.746 14.763-6.113 28.443-19.835 34.307l-22.83 9.772c-6.279 2.661-10.936 6.612-14.679 12.308l-13.597 20.792c-7.243 11.087-19.741 16.557-32.444 14.631 8.981-1.382 17.128-6.494 22.444-14.631l13.597-20.792c3.743-5.696 8.4-9.647 14.679-12.308l22.83-9.772c13.722-5.864 21.581-19.544 19.835-34.307l-2.952-24.7c-.832-6.778.249-12.766 3.285-18.837l11.227-22.206c6.737-13.265 3.992-28.817-6.861-39.005l-18.13-17.008c-4.99-4.657-8.026-9.938-9.565-16.55l-5.697-24.243c-3.368-14.471-15.469-24.617-30.314-25.449l-24.825-1.372c-6.82-.374-12.517-2.454-17.964-6.529l-19.919-14.928c-4.526-3.376-9.604-5.471-14.814-6.285zm0 299.573a34.88 34.88 0 0 0-4.543 1.08l-23.828 7.194c-4.959 1.49-9.985 1.813-14.773 1.075a34.566 34.566 0 0 0 4.773-1.075l23.828-7.194c4.955-1.524 9.691-1.884 14.543-1.08z" data-original="#ffd064"/>
  <path fill="#ffe177" d="M251.326 17.68c.517-1.598 2.001-2.68 3.674-2.68s3.157 1.082 3.674 2.68l6.021 18.607a3.866 3.866 0 0 0 3.674 2.68h19.487c1.673 0 3.157 1.081 3.674 2.679s-.05 3.349-1.404 4.336l-15.765 11.5a3.887 3.887 0 0 0-1.403 4.336l6.022 18.607a3.888 3.888 0 0 1-1.403 4.336 3.849 3.849 0 0 1-4.541 0l-15.766-11.5a3.85 3.85 0 0 0-4.54 0l-15.766 11.5a3.849 3.849 0 0 1-4.541 0 3.888 3.888 0 0 1-1.403-4.336l6.022-18.607a3.887 3.887 0 0 0-1.403-4.336l-15.765-11.5c-1.354-.987-1.921-2.738-1.404-4.336s2.001-2.679 3.674-2.679h19.487a3.866 3.866 0 0 0 3.674-2.68zM133.158 51.311c-.351-1.642.393-3.32 1.842-4.157s3.275-.641 4.521.484l14.519 13.103a3.864 3.864 0 0 0 4.521.484l16.876-9.743a3.865 3.865 0 0 1 4.522.483 3.889 3.889 0 0 1 .953 4.457l-7.904 17.842a3.887 3.887 0 0 0 .953 4.456l14.519 13.104a3.886 3.886 0 0 1 .952 4.456 3.849 3.849 0 0 1-3.932 2.271l-19.403-2.077a3.852 3.852 0 0 0-3.933 2.271l-7.903 17.842a3.85 3.85 0 0 1-3.932 2.27 3.888 3.888 0 0 1-3.384-3.053l-4.088-19.126a3.886 3.886 0 0 0-3.383-3.053l-19.403-2.076a3.886 3.886 0 0 1-3.383-3.054 3.862 3.862 0 0 1 1.841-4.157l16.876-9.744a3.863 3.863 0 0 0 1.842-4.157zm-85.52 88.21c-1.125-1.246-1.321-3.072-.484-4.521s2.515-2.193 4.157-1.842l19.126 4.089a3.863 3.863 0 0 0 4.157-1.842l9.744-16.876a3.862 3.862 0 0 1 4.157-1.841 3.888 3.888 0 0 1 3.054 3.383l2.076 19.403a3.886 3.886 0 0 0 3.053 3.383l19.126 4.088a3.888 3.888 0 0 1 3.053 3.384 3.85 3.85 0 0 1-2.27 3.932l-17.842 7.903a3.852 3.852 0 0 0-2.271 3.933l2.077 19.403a3.849 3.849 0 0 1-2.271 3.932 3.886 3.886 0 0 1-4.456-.952L78.72 173.961a3.887 3.887 0 0 0-4.456-.953l-17.842 7.904a3.889 3.889 0 0 1-4.457-.953 3.865 3.865 0 0 1-.483-4.522l9.743-16.876a3.864 3.864 0 0 0-.484-4.521zm322.841-91.883c1.246-1.125 3.072-1.321 4.521-.484s2.193 2.515 1.842 4.157l-4.089 19.126a3.863 3.863 0 0 0 1.842 4.157l16.876 9.744a3.862 3.862 0 0 1 1.841 4.157 3.888 3.888 0 0 1-3.383 3.054l-19.403 2.076a3.886 3.886 0 0 0-3.383 3.053l-4.088 19.126a3.888 3.888 0 0 1-3.384 3.053 3.85 3.85 0 0 1-3.932-2.27l-7.903-17.842a3.852 3.852 0 0 0-3.933-2.271L324.5 98.551a3.849 3.849 0 0 1-3.932-2.271 3.886 3.886 0 0 1 .952-4.456l14.519-13.104a3.887 3.887 0 0 0 .953-4.456l-7.904-17.842a3.889 3.889 0 0 1 .953-4.457 3.865 3.865 0 0 1 4.522-.483l16.876 9.743a3.864 3.864 0 0 0 4.521-.484zm88.21 85.52c1.642-.351 3.32.393 4.157 1.842s.641 3.275-.484 4.521l-13.103 14.519a3.864 3.864 0 0 0-.484 4.521l9.743 16.876a3.865 3.865 0 0 1-.483 4.522 3.889 3.889 0 0 1-4.457.953l-17.842-7.904a3.887 3.887 0 0 0-4.456.953l-13.104 14.519a3.886 3.886 0 0 1-4.456.952 3.849 3.849 0 0 1-2.271-3.932l2.077-19.403a3.852 3.852 0 0 0-2.271-3.933l-17.842-7.903a3.85 3.85 0 0 1-2.27-3.932 3.888 3.888 0 0 1 3.053-3.384l19.126-4.088a3.886 3.886 0 0 0 3.053-3.383l2.076-19.403a3.886 3.886 0 0 1 3.054-3.383 3.862 3.862 0 0 1 4.157 1.841l9.744 16.876a3.863 3.863 0 0 0 4.157 1.842z" data-original="#ffe177"/>
  <path fill="#ffd064" d="M253.537 15.289c.455-.187.95-.289 1.463-.289a3.865 3.865 0 0 1 3.674 2.68l6.021 18.607a3.866 3.866 0 0 0 3.674 2.68h-2.925a3.864 3.864 0 0 1-3.674-2.68l-6.022-18.607a3.87 3.87 0 0 0-2.211-2.391zm31.394 23.678h2.925c1.673 0 3.157 1.081 3.674 2.679s-.05 3.349-1.404 4.336l-15.765 11.5a3.887 3.887 0 0 0-1.403 4.336l6.022 18.607a3.888 3.888 0 0 1-1.403 4.336 3.85 3.85 0 0 1-3.734.452 3.887 3.887 0 0 0 2.211-4.788l-6.021-18.607a3.885 3.885 0 0 1 1.403-4.336l15.765-11.5c1.354-.987 1.92-2.738 1.403-4.336s-2-2.679-3.673-2.679zm-31.394 33.842a3.874 3.874 0 0 0-.807.452l-15.766 11.5a3.849 3.849 0 0 1-3.733.452 3.86 3.86 0 0 0 .808-.452l15.765-11.5a3.849 3.849 0 0 1 3.733-.452zM135.464 46.926a3.867 3.867 0 0 1 4.057.712l14.519 13.103c.341.307.724.545 1.132.712a3.868 3.868 0 0 1-4.058-.712l-14.518-13.103a3.853 3.853 0 0 0-1.132-.712zm40.437 4.328a3.868 3.868 0 0 1 4.058.711 3.889 3.889 0 0 1 .953 4.457l-7.904 17.842a3.887 3.887 0 0 0 .953 4.456l14.519 13.104a3.886 3.886 0 0 1 .952 4.456 3.849 3.849 0 0 1-3.932 2.271l-1.382-.148a3.849 3.849 0 0 0 2.389-2.123 3.885 3.885 0 0 0-.953-4.456L171.036 78.72a3.885 3.885 0 0 1-.953-4.456l7.903-17.842a3.887 3.887 0 0 0-2.085-5.168zm-11.347 45.368a3.85 3.85 0 0 0-2.39 2.123l-7.903 17.842a3.85 3.85 0 0 1-4.986 2.004 3.849 3.849 0 0 0 2.061-2.004l7.903-17.842a3.85 3.85 0 0 1 3.932-2.271zm-78.333 20.266a3.888 3.888 0 0 1 5.328 3.183l2.076 19.403a3.886 3.886 0 0 0 3.053 3.383l19.126 4.088a3.888 3.888 0 0 1 3.053 3.384 3.85 3.85 0 0 1-2.27 3.932l-17.842 7.903a3.852 3.852 0 0 0-2.271 3.933l2.077 19.403a3.849 3.849 0 0 1-2.271 3.932 3.876 3.876 0 0 1-3.032.046l.107-.046a3.848 3.848 0 0 0 2.27-3.932l-2.076-19.403a3.852 3.852 0 0 1 2.27-3.933l17.842-7.903a3.849 3.849 0 0 0 2.27-3.932 3.888 3.888 0 0 0-3.053-3.384l-19.125-4.088a3.886 3.886 0 0 1-3.053-3.383l-2.077-19.403a3.883 3.883 0 0 0-2.402-3.183zM371.61 46.926a3.859 3.859 0 0 1 3.39.228 3.865 3.865 0 0 1 1.842 4.157l-4.089 19.126a3.863 3.863 0 0 0 1.842 4.157l16.876 9.744a3.862 3.862 0 0 1 1.841 4.157 3.888 3.888 0 0 1-3.383 3.054l-19.403 2.076a3.886 3.886 0 0 0-3.383 3.053l-4.088 19.126a3.888 3.888 0 0 1-3.384 3.053 3.84 3.84 0 0 1-1.872-.266 3.89 3.89 0 0 0 2.33-2.787l4.089-19.126a3.886 3.886 0 0 1 3.383-3.053l19.403-2.076c1.666-.179 3.032-1.412 3.383-3.054s-.392-3.321-1.842-4.157l-16.876-9.744a3.864 3.864 0 0 1-1.841-4.157l4.088-19.126a3.864 3.864 0 0 0-2.306-4.385zm49.243 69.962a3.862 3.862 0 0 1 4.809 1.641l9.744 16.876a3.847 3.847 0 0 0 1.984 1.681l-.752.161a3.865 3.865 0 0 1-4.158-1.842l-9.743-16.876a3.845 3.845 0 0 0-1.884-1.641zm37.083 16.431.753-.161c1.642-.351 3.32.393 4.157 1.842s.641 3.275-.484 4.521l-13.103 14.519a3.864 3.864 0 0 0-.484 4.521l9.743 16.876a3.865 3.865 0 0 1-.483 4.522 3.888 3.888 0 0 1-4.35.998 3.89 3.89 0 0 0 1.424-.998 3.865 3.865 0 0 0 .484-4.522l-9.743-16.876a3.864 3.864 0 0 1 .483-4.521l13.104-14.519a3.865 3.865 0 0 0 .484-4.521 3.85 3.85 0 0 0-1.985-1.681z" data-original="#ffd064"/>
  <path fill="#eceff1" d="M255 362.802c55.348 0 100.5-45.14 100.5-100.488s-45.152-100.5-100.5-100.5-100.5 45.152-100.5 100.5S199.652 362.802 255 362.802z" data-original="#eceff1"/>
  <path fill="#d1d1d6" d="M172.376 262.314c0 20.558 6.172 39.668 16.76 55.597a100.998 100.998 0 0 0 14.136 16.902c16.048 15.407 37.2 25.532 60.666 27.597-2.944.261-5.923.392-8.938.392a101.06 101.06 0 0 1-16.19-1.294c-47.811-7.739-84.31-49.212-84.31-99.194 0-55.503 44.998-100.5 100.5-100.5 3.015 0 5.994.13 8.938.391-51.324 4.523-91.562 47.609-91.562 100.109z" data-original="#d1d1d6"/>
  <path fill="#8ac9fe" d="M255 271.999c-36.202 0-66.007 27.431-69.781 62.636 18.077 17.437 42.671 28.167 69.781 28.167 4.878 0 9.686-.345 14.386-1.021 21.365-3.062 40.57-12.855 55.384-27.146-3.763-35.217-33.568-62.636-69.77-62.636z" data-original="#8ac9fe"/>
  <path fill="#60b7ff" d="M246.074 272.569c41.769 5.306 58.6 36.914 62.47 74.79a99.788 99.788 0 0 0 16.226-12.724c-3.763-35.217-33.568-62.636-69.77-62.636-3.027 0-6.006.19-8.926.57z" data-original="#60b7ff"/>
  <path fill="#f6dccd" d="M255 266.693c19.549 0 35.49-15.94 35.49-35.478 0-19.549-15.941-35.478-35.49-35.478-19.537 0-35.478 15.929-35.478 35.478 0 19.538 15.941 35.478 35.478 35.478z" data-original="#f6dccd"/>
  <path fill="#f1cbbc" d="M281.552 231.215c0 18.089-13.531 33.01-31.015 35.205 1.46.178 2.956.273 4.463.273 19.597 0 35.478-15.881 35.478-35.478S274.597 195.737 255 195.737c-1.507 0-3.003.095-4.463.273 17.484 2.196 31.015 17.116 31.015 35.205z" data-original="#f1cbbc"/>
</svg>
